<?xml version="1.0" encoding="utf-8"?>
<svg width="50px" height="50px" viewBox="0 0 50 50" version="1.1" xmlns:xlink="http://www.w3.org/1999/xlink" xmlns="http://www.w3.org/2000/svg">
  <desc>Created with Lunacy</desc>
  <g id="001-facebook">
    <path d="M43.2395 0L6.73411 0C3.01504 0 0 3.01491 0 6.73411L0 43.2397C0 46.9589 3.01491 49.9738 6.73411 49.9738L24.7384 49.9738L24.7691 32.1159L20.1296 32.1159C19.5266 32.1159 19.0373 31.6284 19.035 31.0254L19.0127 25.2691C19.0104 24.6628 19.5012 24.1702 20.1075 24.1702L24.7385 24.1702L24.7385 18.6081C24.7385 12.1533 28.6807 8.63863 34.4388 8.63863L39.1637 8.63863C39.7682 8.63863 40.2584 9.12873 40.2584 9.73337L40.2584 14.5872C40.2584 15.1916 39.7686 15.6815 39.1643 15.6819L36.2647 15.6833C33.1333 15.6833 32.5269 17.1713 32.5269 19.355L32.5269 24.1703L39.4077 24.1703C40.0633 24.1703 40.572 24.7428 40.4947 25.3939L39.8125 31.1502C39.7472 31.7011 39.2801 32.1161 38.7254 32.1161L32.5576 32.1161L32.5269 49.9741L43.2397 49.9741C46.9588 49.9741 49.9737 46.9592 49.9737 43.2401L49.9737 6.73411C49.9736 3.01491 46.9587 0 43.2395 0Z" transform="translate(0.0002444988 0)" id="Path" fill="#475993" stroke="none" />
  </g>
</svg>