<?xml version="1.0" encoding="utf-8" ?>
<svg xmlns="http://www.w3.org/2000/svg" xmlns:xlink="http://www.w3.org/1999/xlink" width="70" height="47">
	<path fill="rgb(67,85,255)" stroke="none" transform="translate(0 0.0454407)" d="M7.27741 0L62.5861 0C66.5974 0 69.8635 3.26612 69.8634 7.27754L69.8634 39.2984C69.8634 43.3097 66.5973 46.5758 62.586 46.5758L7.27741 46.5758C3.26612 46.5758 0 43.3097 0 39.2984L0 7.27754C0 3.26612 3.26612 0 7.27741 0ZM62.5861 43.6647C64.9936 43.6647 66.9526 41.7057 66.9526 39.2982L66.9525 39.2982L66.9525 7.27754C66.9525 4.87012 64.9934 2.91107 62.586 2.91107L7.27741 2.91107C4.86998 2.91107 2.91094 4.87012 2.91094 7.27754L2.91094 39.2982C2.91094 41.7057 4.86998 43.6647 7.27741 43.6647L62.5861 43.6647Z" fill-rule="evenodd"/>
	<path fill="rgb(67,85,255)" stroke="none" transform="translate(0 8.77838)" d="M1.45554 0L68.408 0C69.2114 0 69.8635 0.652105 69.8637 1.45554L69.8637 10.1885C69.8637 10.9919 69.2116 11.644 68.4081 11.644L1.45554 11.644C0.652105 11.644 0 10.9919 0 10.1885L0 1.45554C0 0.652105 0.652105 0 1.45554 0ZM2.91094 8.73294L66.9525 8.73294L66.9525 2.91094L2.91094 2.91094L2.91094 8.73294Z" fill-rule="evenodd"/>
	<path fill="rgb(67,85,255)" stroke="none" transform="translate(8.73297 29.1553)" d="M18.9214 0L1.45554 0C0.652105 0 0 0.652105 0 1.45554C0 2.25897 0.652105 2.91094 1.45554 2.91094L18.9214 2.91094C19.7249 2.91094 20.377 2.25883 20.377 1.4554C20.377 0.651969 19.7249 0 18.9214 0Z"/>
	<path fill="rgb(67,85,255)" stroke="none" transform="translate(8.73297 34.9772)" d="M18.9214 0L1.45554 0C0.652105 0 0 0.652105 0 1.45554C0 2.25897 0.652105 2.91107 1.45554 2.91107L18.9214 2.91107C19.7249 2.91107 20.377 2.25897 20.377 1.45554C20.3768 0.652105 19.7249 0 18.9214 0Z"/>
	<path fill="rgb(67,85,255)" stroke="none" transform="translate(49.4867 26.2443)" d="M4.36647 0L7.27741 0C9.68483 0 11.6439 1.95918 11.6439 4.36647L11.6439 7.27741C11.6439 9.68483 9.68483 11.6439 7.27741 11.6439L4.36647 11.6439C1.95904 11.6439 0 9.68483 0 7.27741L0 4.36647C0 1.95904 1.95904 0 4.36647 0ZM7.27741 8.73308C8.08084 8.73308 8.73294 8.08097 8.73294 7.27754L8.73294 4.36661C8.73294 3.56318 8.08084 2.91107 7.27741 2.91107L4.36647 2.91107C3.56304 2.91107 2.91093 3.56318 2.91093 4.36661L2.91093 7.27754C2.91093 8.08097 3.56304 8.73308 4.36647 8.73308L7.27741 8.73308Z" fill-rule="evenodd"/>

</svg>