<?xml version="1.0" encoding="utf-8"?>
<svg width="50px" height="50px" viewBox="0 0 50 50" version="1.1" xmlns:xlink="http://www.w3.org/1999/xlink" xmlns="http://www.w3.org/2000/svg">
  <desc>Created with Lunacy</desc>
  <defs>
    <linearGradient x1="0.332019538" y1="0.1405981" x2="0.584948063" y2="0.681747735" id="gradient_1">
      <stop offset="0" stop-color="#00C3FF" />
      <stop offset="1" stop-color="#00B0ED" />
    </linearGradient>
    <linearGradient x1="0.7383351" y1="0.62785244" x2="-0.8989489" y2="-0.2504477" id="gradient_2">
      <stop offset="0" stop-color="#00B0ED" stop-opacity="0" />
      <stop offset="1" stop-color="#00A2CE" />
    </linearGradient>
    <linearGradient x1="0.499996662" y1="0.269860983" x2="0.499996662" y2="0.926337242" id="gradient_3">
      <stop offset="0" stop-color="#00B0ED" stop-opacity="0" />
      <stop offset="1" stop-color="#00A2CE" />
    </linearGradient>
    <linearGradient x1="0.945561767" y1="0.922327459" x2="0.342372864" y2="0.273159981" id="gradient_4">
      <stop offset="0" stop-color="#00B0ED" stop-opacity="0" />
      <stop offset="1" stop-color="#00A2CE" />
    </linearGradient>
  </defs>
  <g id="002-twitter">
    <path d="M41.0568 49.144C30.3631 50.2853 19.6369 50.2853 8.94318 49.144C4.67911 48.6889 1.31111 45.3209 0.856018 41.0564C-0.285339 30.3627 -0.285339 19.6369 0.856018 8.94318C1.31111 4.67911 4.67911 1.31111 8.94318 0.856018C19.6369 -0.285339 30.3627 -0.285339 41.0564 0.856018C45.3209 1.31111 48.6889 4.67911 49.144 8.94318C50.2853 19.6369 50.2853 30.3627 49.144 41.0564C48.6889 45.3209 45.3213 48.6889 41.0568 49.144Z" id="Path" fill="url(#gradient_1)" stroke="none" />
    <path d="M43.6087 7.93591C43.2051 4.15211 40.2166 1.16329 36.4325 0.759315C26.943 -0.253105 17.4253 -0.253105 7.93591 0.759315C4.15211 1.16329 1.16329 4.15211 0.759315 7.93591C-0.253105 17.4253 -0.253105 26.943 0.759315 36.4321C1.16329 40.2163 4.15211 43.2051 7.93591 43.6087C17.4253 44.6215 26.943 44.6215 36.4321 43.6087C40.2163 43.2051 43.2051 40.2163 43.6087 36.4321C44.6215 26.943 44.6215 17.4253 43.6087 7.93591L43.6087 7.93591Z" transform="translate(2.815796 2.815826)" id="Path" fill="url(#gradient_2)" stroke="none" />
    <path d="M0 0C0.0343323 0.345612 0.069809 0.691223 0.106812 1.03683C0.561905 5.3009 3.9299 8.6689 8.19435 9.12399C18.8881 10.2653 29.6139 10.2653 40.3076 9.12399C44.5721 8.6689 47.9397 5.3009 48.3948 1.03683C48.4318 0.691223 48.4673 0.345612 48.502 0L0 0Z" transform="translate(0.7492065 40.01999)" id="Path" fill="url(#gradient_3)" stroke="none" />
    <path d="M40.4854 10.8704L30.1067 0.492096C28.9436 1.157 27.9186 1.52588 27.1465 1.73035C26.7124 1.84669 26.358 1.91002 26.1032 1.94473C24.9329 0.74501 23.2986 0 21.4897 0C17.9306 0 15.0448 2.88544 15.0448 6.44531C15.0448 6.57387 15.0482 6.7009 15.0566 6.82755C15.0738 7.13615 15.1131 7.43942 15.1737 7.7343C13.6879 7.71217 8.85849 7.31544 4.25262 3.36723C4.25224 3.36723 4.25224 3.36685 4.25224 3.36685L4.25186 3.36685L2.07977 1.19438C2.07977 1.19438 -0.468445 5.64194 3.27797 9.0168C3.44238 9.20029 3.6232 9.38148 3.82118 9.55963C3.83682 9.57718 3.85323 9.59435 3.86887 9.61189C3.37715 9.5787 1.89819 9.43146 1.04218 8.82683C1.04218 8.82683 0.870133 11.5452 3.13492 13.5464L4.96368 15.3908C4.40674 15.4369 3.79066 15.4259 3.36227 15.2382C3.36227 15.2382 3.74145 16.8484 5.20706 18.137L7.76901 20.7123C6.23207 21.6076 3.54156 22.728 0 22.4419L15.5415 37.6274C20.8813 37.6259 26.2211 37.3405 31.5529 36.7714C35.8173 36.3163 39.1853 32.9483 39.6404 28.6842C40.2733 22.7524 40.5544 16.8106 40.4854 10.8704L40.4854 10.8704Z" transform="translate(9.503906 12.37259)" id="Path" fill="url(#gradient_4)" stroke="none" />
    <path d="M30.9929 2.9953C29.8866 3.57399 28.2204 3.8414 27.668 3.91846C27.6634 3.89175 27.6588 3.8662 27.6543 3.84064C29.5322 2.67906 30.1071 0.492096 30.1071 0.492096C28.944 1.157 27.919 1.52588 27.1469 1.73035C26.7128 1.84669 26.3584 1.90964 26.1036 1.94473C24.9332 0.744629 23.299 0 21.4901 0C17.931 0 15.0452 2.88506 15.0452 6.44531C15.0452 6.57349 15.0486 6.7009 15.057 6.82716C15.0742 7.13577 15.1134 7.43904 15.1741 7.73392C13.4514 7.70836 7.23305 7.18002 2.08015 1.19438C2.08015 1.19438 -0.789261 6.20079 4.03481 9.62067C4.03481 9.62067 2.08015 9.55963 1.04256 8.82683C1.04256 8.82683 0.737381 13.6509 6.29349 15.1768C6.29349 15.1768 4.33998 15.6658 3.36227 15.2382C3.36227 15.2382 4.3396 19.3901 9.22432 19.696C9.22432 19.696 5.7209 22.9034 0 22.4419C2.81372 24.2233 6.14967 25.2544 9.72633 25.2544C19.783 25.2544 27.9358 17.1021 27.9358 7.04536C27.9358 6.91986 27.9346 6.79436 27.932 6.66885C27.9346 6.59447 27.9358 6.52046 27.9358 6.44531C27.9358 6.39305 27.9346 6.34079 27.9339 6.28853C29.7932 5.04951 30.9929 2.9953 30.9929 2.9953L30.9929 2.9953Z" transform="translate(9.50354 12.37259)" id="Path" fill="#FFFFFF" stroke="none" />
  </g>
</svg>