<?xml version="1.0" encoding="utf-8"?>
<svg width="70px" height="47px" viewBox="0 0 70 47" version="1.1" xmlns:xlink="http://www.w3.org/1999/xlink" xmlns="http://www.w3.org/2000/svg">
  <desc>Created with Lunacy</desc>
  <g id="002-credit-card">
    <path d="M62.5861 0L7.27741 0C3.26612 0 0 3.26612 0 7.27754L0 39.2984C0 43.3097 3.26612 46.5758 7.27741 46.5758L62.586 46.5758C66.5973 46.5758 69.8634 43.3097 69.8634 39.2984L69.8634 7.27754C69.8635 3.26612 66.5974 0 62.5861 0ZM66.9526 39.2982C66.9526 41.7057 64.9936 43.6647 62.5861 43.6647L7.27741 43.6647C4.86998 43.6647 2.91094 41.7057 2.91094 39.2982L2.91094 7.27754C2.91094 4.87012 4.86998 2.91107 7.27741 2.91107L62.586 2.91107C64.9934 2.91107 66.9525 4.87012 66.9525 7.27754L66.9525 39.2982L66.9526 39.2982Z" transform="translate(0 0.04544067)" id="Shape" fill="#4355FF" stroke="none" />
    <path d="M68.408 0L1.45554 0C0.652105 0 0 0.652105 0 1.45554L0 10.1885C0 10.9919 0.652105 11.644 1.45554 11.644L68.4081 11.644C69.2116 11.644 69.8637 10.9919 69.8637 10.1885L69.8637 1.45554C69.8635 0.652105 69.2114 0 68.408 0ZM66.9526 8.73294L2.91094 8.73294L2.91094 2.91094L66.9525 2.91094L66.9525 8.73294L66.9526 8.73294Z" transform="translate(0 8.778382)" id="Shape" fill="#4355FF" stroke="none" />
    <path d="M18.9214 0L1.45554 0C0.652105 0 0 0.652105 0 1.45554C0 2.25897 0.652105 2.91094 1.45554 2.91094L18.9214 2.91094C19.7249 2.91094 20.377 2.25883 20.377 1.4554C20.377 0.651969 19.7249 0 18.9214 0Z" transform="translate(8.732971 29.15533)" id="Path" fill="#4355FF" stroke="none" />
    <path d="M18.9214 0L1.45554 0C0.652105 0 0 0.652105 0 1.45554C0 2.25897 0.652105 2.91107 1.45554 2.91107L18.9214 2.91107C19.7249 2.91107 20.377 2.25897 20.377 1.45554C20.3768 0.652105 19.7249 0 18.9214 0Z" transform="translate(8.732971 34.97723)" id="Path" fill="#4355FF" stroke="none" />
    <path d="M7.27741 0L4.36647 0C1.95904 0 0 1.95904 0 4.36647L0 7.27741C0 9.68483 1.95904 11.6439 4.36647 11.6439L7.27741 11.6439C9.68483 11.6439 11.6439 9.68483 11.6439 7.27741L11.6439 4.36647C11.6439 1.95918 9.68483 0 7.27741 0ZM8.73294 7.27754C8.73294 8.08097 8.08084 8.73308 7.27741 8.73308L4.36647 8.73308C3.56304 8.73308 2.91093 8.08097 2.91093 7.27754L2.91093 4.36661C2.91093 3.56318 3.56304 2.91107 4.36647 2.91107L7.27741 2.91107C8.08084 2.91107 8.73294 3.56318 8.73294 4.36661L8.73294 7.27754Z" transform="translate(49.48669 26.24426)" id="Shape" fill="#4355FF" stroke="none" />
  </g>
</svg>