<?xml version="1.0" encoding="utf-8"?>
<svg width="50px" height="50px" viewBox="0 0 50 50" version="1.1" xmlns:xlink="http://www.w3.org/1999/xlink" xmlns="http://www.w3.org/2000/svg">
  <desc>Created with Lunacy</desc>
  <defs>
    <radialGradient gradientUnits="objectBoundingBox" cx="20.49944%" cy="87.39207%" fx="20.49944%" fy="87.39207%" r="110.2824%" gradientTransform="translate(0.2049944,0.8739207),scale(1,0),translate(-0.2049944,-0.8739207)" id="gradient_1">
      <stop offset="0%" stop-color="#FAE100" />
      <stop offset="5.44%" stop-color="#FADC04" />
      <stop offset="11.67%" stop-color="#FBCE0E" />
      <stop offset="18.29%" stop-color="#FCB720" />
      <stop offset="25.14%" stop-color="#FE9838" />
      <stop offset="30.54%" stop-color="#FF7950" />
      <stop offset="49.22%" stop-color="#FF1C74" />
      <stop offset="100%" stop-color="#6C1CD1" />
    </radialGradient>
    <linearGradient x1="0.368759" y1="0.426177531" x2="-1.54039645" y2="-0.6477224" id="gradient_2">
      <stop offset="0" stop-color="#A1B5D8" stop-opacity="0" />
      <stop offset="0.3094" stop-color="#90A2BD" stop-opacity="0.309803933" />
      <stop offset="0.7554" stop-color="#7C8B9C" stop-opacity="0.75686276" />
      <stop offset="1" stop-color="#748290" />
    </linearGradient>
    <linearGradient x1="0.499996662" y1="0.412557065" x2="0.499996662" y2="1.19349194" id="gradient_3">
      <stop offset="0" stop-color="#FAE100" stop-opacity="0" />
      <stop offset="0.3068" stop-color="#FCA800" stop-opacity="0.305882365" />
      <stop offset="0.6275" stop-color="#FE7300" stop-opacity="0.627451" />
      <stop offset="0.8685" stop-color="#FF5200" stop-opacity="0.8666667" />
      <stop offset="1" stop-color="#FF4500" />
    </linearGradient>
    <linearGradient x1="0.3160978" y1="0.310673982" x2="0.0121630784" y2="0.00511005847" id="gradient_4">
      <stop offset="0" stop-color="#833AB4" stop-opacity="0" />
      <stop offset="1" stop-color="#833AB4" />
    </linearGradient>
    <linearGradient x1="0.582371652" y1="0.8865324" x2="0.418417871" y2="0.112586178" id="gradient_5">
      <stop offset="0" stop-color="#833AB4" stop-opacity="0" />
      <stop offset="1" stop-color="#833AB4" />
    </linearGradient>
    <linearGradient x1="0.6050481" y1="0.6050478" x2="-0.159715489" y2="-0.159716055" id="gradient_6">
      <stop offset="0" stop-color="#833AB4" stop-opacity="0" />
      <stop offset="1" stop-color="#833AB4" />
    </linearGradient>
    <linearGradient x1="0.375668615" y1="0.33216843" x2="-0.07180463" y2="-0.06349294" id="gradient_7">
      <stop offset="0" stop-color="#833AB4" stop-opacity="0" />
      <stop offset="1" stop-color="#833AB4" />
    </linearGradient>
    <linearGradient x1="0.8158876" y1="0.181912258" x2="0.172310233" y2="0.8345244" id="gradient_8">
      <stop offset="0" stop-color="#833AB4" />
      <stop offset="0.0922" stop-color="#9C3495" />
      <stop offset="0.2927" stop-color="#DC2546" />
      <stop offset="0.392" stop-color="#FD1D1D" />
      <stop offset="0.5589" stop-color="#FC6831" />
      <stop offset="0.6887" stop-color="#FC9B40" />
      <stop offset="0.7521" stop-color="#FCAF45" />
      <stop offset="0.7806" stop-color="#FDB750" />
      <stop offset="0.8656" stop-color="#FECB6A" />
      <stop offset="0.9415" stop-color="#FFD87A" />
      <stop offset="1" stop-color="#FFDC80" />
    </linearGradient>
  </defs>
  <g id="003-instagram">
    <path d="M49.144 8.94318C48.6889 4.67911 45.3213 1.31073 41.0568 0.856018C30.3627 -0.285339 19.6373 -0.285339 8.94356 0.856018C4.67911 1.31111 1.31111 4.67911 0.856018 8.94318C-0.285339 19.6369 -0.285339 30.3627 0.856018 41.0564C1.31111 45.3209 4.67911 48.6889 8.94318 49.144C19.6369 50.2853 30.3627 50.2853 41.0568 49.144C45.3213 48.6889 48.6889 45.3209 49.144 41.0564C50.2853 30.3627 50.2853 19.6373 49.144 8.94318Z" id="Path" fill="url(#gradient_1)" stroke="none" />
    <path d="M43.6087 7.93591C43.2051 4.15211 40.2166 1.16329 36.4325 0.759315C26.943 -0.253105 17.4253 -0.253105 7.93591 0.759315C4.15211 1.16329 1.16329 4.15211 0.759315 7.93591C-0.253105 17.4253 -0.253105 26.943 0.759315 36.4321C1.16329 40.2163 4.15211 43.2051 7.93591 43.6087C17.4253 44.6215 26.943 44.6215 36.4321 43.6087C40.2163 43.2051 43.2051 40.2163 43.6087 36.4321C44.6215 26.943 44.6215 17.4253 43.6087 7.93591L43.6087 7.93591Z" transform="translate(2.815796 2.815826)" id="Path" fill="url(#gradient_2)" stroke="none" />
    <path d="M0 0C0.0343323 0.345612 0.069809 0.691223 0.106812 1.03683C0.561905 5.3009 3.9299 8.6689 8.19435 9.12399C18.8881 10.2653 29.6139 10.2653 40.3076 9.12399C44.5721 8.6689 47.9397 5.3009 48.3948 1.03683C48.4318 0.691223 48.4673 0.345612 48.502 0L0 0Z" transform="translate(0.7492676 40.01999)" id="Path" fill="url(#gradient_3)" stroke="none" />
    <path d="M39.8579 31.5528C40.4713 25.8067 40.7543 20.0515 40.7085 14.297L29.2797 2.8682C27.8519 1.23818 25.7664 0.220802 23.3158 0.132682C18.2762 -0.0488975 13.2206 -0.0397422 8.18024 0.133445C3.99399 0.277641 1.06659 3.09136 0.315857 7.22687C0.183487 7.95701 0.104141 8.69668 0 9.43215L0 21.556C0.057602 21.9489 0.142288 22.3399 0.16861 22.7351C0.336456 25.2506 1.37024 27.4051 3.02544 28.8627L14.6557 40.4926C20.3632 40.5326 26.0712 40.2488 31.7707 39.6404C36.0352 39.1853 39.4028 35.8173 39.8579 31.5528L39.8579 31.5528Z" transform="translate(9.286133 9.503632)" id="Path" fill="url(#gradient_4)" stroke="none" />
    <path d="M36.8145 28.6774C36.3598 32.9411 32.991 36.3098 28.7273 36.7645C23.0286 37.3726 17.3195 37.6568 11.6127 37.6167L0 26.004C1.34621 27.1824 3.10097 27.8999 5.13725 27.9766C10.1765 28.1658 15.2332 28.1609 20.2724 27.9793C24.8302 27.8145 28.1284 24.4411 28.2707 19.8833C28.4225 15.044 28.4225 10.1921 28.2707 5.35278C28.2059 3.25012 27.4677 1.39999 26.244 0L37.6656 11.4216C37.7106 17.1753 37.4275 22.9313 36.8145 28.6774Z" transform="translate(12.32947 12.37946)" id="Path" fill="url(#gradient_5)" stroke="none" />
    <path d="M13.9084 2.59438C12.4443 1.00021 10.3436 0 8.00858 0C3.58582 0 0 3.58582 0 8.00858C0 10.3436 1.00021 12.4443 2.59438 13.9084L21.1235 32.4375C22.1043 32.3521 23.085 32.2571 24.065 32.1526C28.3295 31.6975 31.6975 28.3295 32.1526 24.065C32.2571 23.085 32.3521 22.1043 32.4375 21.1235L13.9084 2.59438Z" transform="translate(16.99146 16.99142)" id="Path" fill="url(#gradient_6)" stroke="none" />
    <path d="M18.3323 15.6651L3.41988 0.753021C3.07198 0.296402 2.5238 0 1.90544 0C0.853348 0 0 0.852966 0 1.90544C0 2.5238 0.296402 3.07198 0.753021 3.41988L18.0656 20.7329C18.1831 19.0441 18.272 17.3546 18.3323 15.6651L18.3323 15.6651Z" transform="translate(31.5708 14.72092)" id="Path" fill="url(#gradient_7)" stroke="none" />
    <path d="M2.77556e-15 9.43215C0.104141 8.69668 0.183487 7.95701 0.315857 7.22687C1.06621 3.09136 3.99399 0.277641 8.18024 0.133445C13.2206 -0.0397422 18.2762 -0.0488975 23.3158 0.132682C27.8721 0.296714 31.1718 3.67043 31.3141 8.22823C31.4655 13.0679 31.4655 17.9195 31.3141 22.7592C31.1718 27.317 27.8732 30.6903 23.3162 30.8547C18.2766 31.0367 13.2198 31.0413 8.18062 30.8521C3.62358 30.6808 0.473404 27.2994 0.16861 22.7348C0.142288 22.3399 0.057602 21.9486 0 21.5556C0 17.5144 0 13.4731 2.77556e-15 9.43215ZM15.7181 28.1535C18.0244 28.1535 20.3331 28.2226 22.6364 28.1375C26.2478 28.0036 28.4691 25.8483 28.5534 22.2404C28.6579 17.7448 28.6579 13.243 28.5534 8.74703C28.4691 5.13985 26.2463 2.9342 22.6364 2.85752C18.0546 2.76063 13.4678 2.76139 8.88596 2.85752C5.30357 2.93267 3.07579 5.0937 2.97852 8.6612C2.85492 13.2137 2.85492 17.7741 2.97852 22.3266C3.07579 25.8937 5.30357 28.0048 8.88634 28.1375C11.1607 28.2222 13.4407 28.1535 15.7181 28.1535L15.7181 28.1535Z" transform="translate(9.286133 9.503632)" id="Shape" fill="url(#gradient_8)" stroke="none" />
    <g id="Group" transform="translate(9.277344 9.472656)">
      <path d="M2.77556e-15 9.43215C0.104141 8.69668 0.183487 7.95701 0.315857 7.22687C1.06621 3.09136 3.99399 0.277641 8.18024 0.133445C13.2206 -0.0397422 18.2762 -0.0488975 23.3158 0.132682C27.8721 0.296714 31.1718 3.67043 31.3141 8.22823C31.4655 13.0679 31.4655 17.9195 31.3141 22.7592C31.1718 27.317 27.8732 30.6903 23.3162 30.8547C18.2766 31.0367 13.2198 31.0413 8.18062 30.8521C3.62358 30.6808 0.473404 27.2994 0.16861 22.7348C0.142288 22.3399 0.057602 21.9486 0 21.5556C0 17.5144 0 13.4731 2.77556e-15 9.43215ZM15.7181 28.1535C18.0244 28.1535 20.3331 28.2226 22.6364 28.1375C26.2478 28.0036 28.4691 25.8483 28.5534 22.2404C28.6579 17.7448 28.6579 13.243 28.5534 8.74703C28.4691 5.13985 26.2463 2.9342 22.6364 2.85752C18.0546 2.76063 13.4678 2.76139 8.88596 2.85752C5.30357 2.93267 3.07579 5.0937 2.97852 8.6612C2.85492 13.2137 2.85492 17.7741 2.97852 22.3266C3.07579 25.8937 5.30357 28.0048 8.88634 28.1375C11.1607 28.2222 13.4407 28.1535 15.7181 28.1535L15.7181 28.1535Z" transform="translate(0.008773828 0.03096841)" id="Shape" fill="#FFFFFF" stroke="none" />
      <path d="M8.00858 0C3.58582 0 0 3.58543 0 8.00819C0 12.4313 3.58582 16.0168 8.00858 16.0168C12.4317 16.0168 16.0172 12.4313 16.0172 8.00819C16.0172 3.58543 12.4317 0 8.00858 0ZM8.00858 13.2595C5.10826 13.2595 2.75726 10.9085 2.75726 8.00819C2.75726 5.10788 5.10826 2.75688 8.00858 2.75688C10.9089 2.75688 13.2599 5.10788 13.2599 8.00819C13.2599 10.9085 10.9089 13.2595 8.00858 13.2595Z" transform="translate(7.714081 7.51915)" id="Shape" fill="#FFFFFF" stroke="none" />
      <path d="M3.8105 1.90544C3.8105 2.95753 2.95753 3.8105 1.90544 3.8105C0.853348 3.8105 0 2.95753 0 1.90544C0 0.852966 0.853348 0 1.90544 0C2.95753 0 3.8105 0.852966 3.8105 1.90544Z" transform="translate(22.29347 5.24826)" id="Path" fill="#FFFFFF" stroke="none" />
    </g>
  </g>
</svg>