<?xml version="1.0" encoding="UTF-8"?>
<svg width="20px" height="16px" viewBox="0 0 20 16" version="1.1" xmlns="http://www.w3.org/2000/svg" xmlns:xlink="http://www.w3.org/1999/xlink">
    <!-- Generator: Sketch 54.1 (76490) - https://sketchapp.com -->
    <title>Repeat</title>
    <desc>Created with Sketch.</desc>
    <g id="Page-1" stroke="none" stroke-width="1" fill="none" fill-rule="evenodd">
        <g id="Profile" transform="translate(-27.000000, -202.000000)" fill="#494B74">
            <g id="Fefault-/-Sidebar-Expanded">
                <g id="Sidebar-Menu-/-Sub-level" transform="translate(0.000000, 100.000000)">
                    <g id="Automate" transform="translate(0.000000, 88.000000)">
                        <g id="Group-3" transform="translate(27.000000, 11.000000)">
                            <g id="Repeat" transform="translate(0.000000, 3.000000)">
                                <path d="M10,4 L6,4 C3.790861,4 2,5.790861 2,8 L2,9 C2,10.6568542 3.34314575,12 5,12 L5,14 C2.23857625,14 0,11.7614237 0,9 L0,8 C0,4.6862915 2.6862915,2 6,2 L10,2 L10,0.72799742 C10,0.62015048 10.0348702,0.51519416 10.0994077,0.42878885 C10.264656,0.2075478 10.5779675,0.16215674 10.7992086,0.32740507 L13.656242,2.46136716 C13.6951359,2.49041758 13.7295917,2.52497737 13.7585249,2.56395854 C13.9231063,2.78569617 13.876772,3.09886961 13.6550344,3.263451 L10.798001,5.3840407 C10.7118152,5.44801079 10.607332,5.48254921 10.5,5.48254921 C10.2238576,5.48254921 10,5.25869158 10,4.98254921 L10,4 Z" id="Combined-Shape"></path>
                                <path d="M10.0583175,12 L14,12 C16.209139,12 18,10.209139 18,8 L18,7 C18,5.34314575 16.6568542,4 15,4 L15,2 C17.7614237,2 20,4.23857625 20,7 L20,8 C20,11.3137085 17.3137085,14 14,14 L10.0583175,14 L10.0583175,14.9825492 C10.0583175,15.2586916 9.8344599,15.4825492 9.5583175,15.4825492 C9.4509855,15.4825492 9.3465023,15.4480108 9.2603165,15.3840407 L6.40328311,13.263451 C6.18154548,13.0988696 6.13521119,12.7856962 6.29979258,12.5639585 C6.32872576,12.5249774 6.36318164,12.4904176 6.40207551,12.4613672 L9.2591089,10.3274051 C9.48035,10.1621567 9.7936615,10.2075478 9.9589099,10.4287888 C10.0234473,10.5151942 10.0583175,10.6201505 10.0583175,10.7279974 L10.0583175,12 Z" id="Combined-Shape" opacity="0.3"></path>
                            </g>
                        </g>
                    </g>
                </g>
            </g>
        </g>
    </g>
</svg>