<?xml version="1.0" encoding="UTF-8"?>
<svg width="18px" height="18px" viewBox="0 0 18 18" version="1.1" xmlns="http://www.w3.org/2000/svg" xmlns:xlink="http://www.w3.org/1999/xlink">
    <!-- Generator: Sketch 54.1 (76490) - https://sketchapp.com -->
    <title>004-wallet-filled-money-tool</title>
    <desc>Created with Sketch.</desc>
    <g id="Page-1" stroke="none" stroke-width="1" fill="none" fill-rule="evenodd">
        <g id="Profile" transform="translate(-1606.000000, -291.000000)" fill="#FD397A">
            <g id="Header-/-Default" transform="translate(255.000000, 1.000000)">
                <g id="profile-drop-down" transform="translate(1326.000000, 81.000000)">
                    <g id="List" transform="translate(0.000000, 83.000000)">
                        <g id="list-item" transform="translate(0.000000, 110.000000)">
                            <g id="004-wallet-filled-money-tool" transform="translate(25.000000, 16.000000)">
                                <path d="M4.2040404,3.30424242 L11.3757576,1.34666667 L10.9959596,0.578989899 C10.7474747,0.08 10.1414141,-0.126060606 9.64242424,0.122424242 L3.22222222,3.30424242 L4.2040404,3.30424242 Z" id="Path"></path>
                                <path d="M13.6020202,1.40323232 C13.5131515,1.40323232 13.4242424,1.41535354 13.3353535,1.43959596 L11.6505253,1.90020202 L6.50505051,3.30424242 L12.3454545,3.30424242 L14.8909091,3.30424242 L14.5757576,2.14868687 C14.4545455,1.69818182 14.0464646,1.40323232 13.6020202,1.40323232 Z" id="Path"></path>
                                <path d="M15.9434343,4.01131313 L15.7131313,4.01131313 L15.4,4.01131313 L15.0868687,4.01131313 L12.6969697,4.01131313 L3.91515152,4.01131313 L2.76363636,4.01131313 L1.79393939,4.01131313 L1.61414141,4.01131313 L1.01212121,4.01131313 C0.692929293,4.01131313 0.408080808,4.15878788 0.222222222,4.39111111 C0.137373737,4.49818182 0.0727272727,4.62141414 0.0363636364,4.75676768 C0.0141414141,4.84161616 0,4.93050505 0,5.02141414 L0,5.14262626 L0,6.29414141 L0,16.2759596 C0,16.8335556 0.452525253,17.2860606 1.01010101,17.2860606 L15.9414141,17.2860606 C16.4990101,17.2860606 16.9515152,16.8335556 16.9515152,16.2759596 L16.9515152,13.4577778 L10.9575758,13.4577778 C10.010101,13.4577778 9.24040404,12.6880808 9.24040404,11.7406061 L9.24040404,10.8153535 L9.24040404,10.5022222 L9.24040404,10.1890909 L9.24040404,9.49414141 C9.24040404,9.02949495 9.42624242,8.60729293 9.72727273,8.29820202 C9.99393939,8.02343434 10.3515152,7.83757576 10.7515152,7.79111111 C10.8181818,7.78305051 10.8868687,7.7789899 10.9555556,7.7789899 L16.1111111,7.7789899 L16.4242424,7.7789899 L16.7373737,7.7789899 L16.9515152,7.7789899 L16.9515152,5.02141414 C16.9535354,4.46383838 16.5010101,4.01131313 15.9434343,4.01131313 Z" id="Path"></path>
                                <path d="M17.6606061,8.74464646 C17.559596,8.65171717 17.440404,8.5810101 17.3070707,8.53454545 C17.2040202,8.50022222 17.0949495,8.4800202 16.979798,8.4800202 L16.9535354,8.4800202 L16.9333333,8.4800202 L16.620202,8.4800202 L15.4909091,8.4800202 L10.9575758,8.4800202 C10.3999798,8.4800202 9.94747475,8.93252525 9.94747475,9.49012121 L9.94747475,9.99313131 L9.94747475,10.3062626 L9.94747475,10.6193939 L9.94747475,11.7385859 C9.94747475,12.2961616 10.3999798,12.7486869 10.9575758,12.7486869 L16.9535354,12.7486869 L16.979798,12.7486869 C17.0949495,12.7486869 17.2040404,12.7284848 17.3070707,12.6941414 C17.440404,12.649697 17.559596,12.5769697 17.6606061,12.4840404 C17.8626263,12.300202 17.989899,12.0335354 17.989899,11.7386061 L17.989899,9.49012121 C17.989899,9.19515152 17.8626263,8.92846465 17.6606061,8.74464646 Z M13.0666667,10.8153535 C13.0666667,11.0941414 12.840404,11.320404 12.5616162,11.320404 L12.2262626,11.320404 C11.9474747,11.320404 11.7212121,11.0941414 11.7212121,10.8153535 L11.7212121,10.48 C11.7212121,10.3183838 11.7959596,10.1749293 11.9151515,10.0840202 C12.0020202,10.0173535 12.1091111,9.97494949 12.2262626,9.97494949 L12.3111111,9.97494949 L12.5616162,9.97494949 C12.840404,9.97494949 13.0666667,10.2011919 13.0666667,10.48 L13.0666667,10.8153535 L13.0666667,10.8153535 Z" id="Shape" fill-rule="nonzero"></path>
                            </g>
                        </g>
                    </g>
                </g>
            </g>
        </g>
    </g>
</svg>