<svg id="Layer_1" data-name="Layer 1" xmlns="http://www.w3.org/2000/svg" xmlns:xlink="http://www.w3.org/1999/xlink" viewBox="0 0 320 319"><defs><style>.cls-1,.cls-2{fill:none;}.cls-1{clip-rule:evenodd;}.cls-3{clip-path:url(#clip-path);}.cls-4{clip-path:url(#clip-path-2);}.cls-5{fill:#4355ff;}.cls-6{clip-path:url(#clip-path-3);}.cls-7{fill:#3c4deb;}.cls-8{clip-path:url(#clip-path-5);}.cls-9{fill:#40596b;}.cls-10{clip-path:url(#clip-path-7);}.cls-11{fill:#fafafa;}.cls-12{clip-path:url(#clip-path-9);}.cls-13{fill:#cdd6e0;}.cls-14{clip-path:url(#clip-path-11);}.cls-15{fill:#45e0ee;}.cls-16{clip-path:url(#clip-path-13);}.cls-17{clip-path:url(#clip-path-14);}.cls-18{clip-path:url(#clip-path-15);}.cls-19{clip-path:url(#clip-path-16);}.cls-20{clip-path:url(#clip-path-17);}.cls-21{clip-path:url(#clip-path-18);}.cls-22{clip-path:url(#clip-path-19);}.cls-23{clip-path:url(#clip-path-20);}.cls-24{clip-path:url(#clip-path-21);}.cls-25{clip-path:url(#clip-path-22);}.cls-26{clip-path:url(#clip-path-23);}.cls-27{clip-path:url(#clip-path-24);}.cls-28{clip-path:url(#clip-path-25);}.cls-29{clip-path:url(#clip-path-26);}.cls-30{clip-path:url(#clip-path-27);}.cls-31{clip-path:url(#clip-path-28);}.cls-32{clip-path:url(#clip-path-29);}.cls-33{clip-path:url(#clip-path-30);}.cls-34{clip-path:url(#clip-path-31);}.cls-35{clip-path:url(#clip-path-32);}.cls-36{clip-path:url(#clip-path-33);}.cls-37{clip-path:url(#clip-path-34);}.cls-38{clip-path:url(#clip-path-35);}.cls-39{clip-path:url(#clip-path-36);}.cls-40{clip-path:url(#clip-path-37);}.cls-41{clip-path:url(#clip-path-38);}</style><clipPath id="clip-path"><path class="cls-1" d="M319.88,305.53a13.48,13.48,0,0,1-4,10,14.47,14.47,0,0,1-9.33,3.32H13.49a16,16,0,0,1-9.33-3.32,13.47,13.47,0,0,1-4-10V111.13H319.88Z"/></clipPath><clipPath id="clip-path-2"><rect class="cls-2" x="-801" y="-367" width="1920" height="1080"/></clipPath><clipPath id="clip-path-3"><path class="cls-1" d="M315.88,315.48a14.47,14.47,0,0,1-9.33,3.32H13.49a16,16,0,0,1-9.33-3.32L160,182.13Z"/></clipPath><clipPath id="clip-path-5"><path class="cls-1" d="M319.88,111.13l-45.29,32.51L168.68,219.28a15,15,0,0,1-18,0L45.46,143.64.17,111.13,45.46,78.62,144,8.29,151.36,3a15,15,0,0,1,18,0l7.33,5.31L224,42.13l23.31,16.59,27.31,19.9Z"/></clipPath><clipPath id="clip-path-7"><path class="cls-1" d="M274.59,49.43v94.21L168.68,219.28a15,15,0,0,1-18,0L45.46,143.64V21.56A13.33,13.33,0,0,1,58.78,8.29H232.62Z"/></clipPath><clipPath id="clip-path-9"><path class="cls-1" d="M233.29,38.81a10.5,10.5,0,0,0,10.66,10.62h30.64L233.29,8.29Z"/></clipPath><clipPath id="clip-path-11"><path class="cls-2" d="M142.71,120.42c0,4.64.67,7.3,2.66,10,2,2,4,3.32,6.66,3.32a12.59,12.59,0,0,0,5.33-1.33,17.64,17.64,0,0,0,4-3.32c2-2,3.33-5.31,4.66-9.29a36.67,36.67,0,0,0,2-11.28c0-4-.67-6.63-2.66-9.29-2-2-4-3.32-6.66-3.32a12.32,12.32,0,0,0-8,3.32q-4,3-6,10A36.7,36.7,0,0,0,142.71,120.42Zm56.62,21.23H210c-3.33,7.3-8.66,12.61-16,16.59-8,4.64-18,6.63-30,6.63-11.32,0-21.31-2-29.31-6s-14.65-9.29-18.65-17.25a51.5,51.5,0,0,1-6-24.55,54.88,54.88,0,0,1,6.66-27.2c4.66-8.63,10.66-14.6,18.65-18.58a61.11,61.11,0,0,1,27.31-6A52.42,52.42,0,0,1,186,70.66c6.66,3.32,12,8,15.32,14.6a43,43,0,0,1,5.33,20.57,39.65,39.65,0,0,1-8,23.89C192,139,183.34,143,172.68,143a16.77,16.77,0,0,1-6.66-1.33c-1.33-1.33-2.66-2.65-2.66-4.64a19.21,19.21,0,0,1-14,6q-9,0-14-6-6-6-6-15.92A40.44,40.44,0,0,1,136,98.53c5.33-8,12.66-11.94,21.31-11.94a16.51,16.51,0,0,1,14,7.3l1.33-6h14l-8,37.15a17.44,17.44,0,0,0-.67,4.64,2.43,2.43,0,0,0,.67,2c.67.66.67.66,1.33.66,1.33,0,4-1.33,6.66-3.32a27.71,27.71,0,0,0,8.66-10.62,35.54,35.54,0,0,0,3.33-13.93,27.54,27.54,0,0,0-9.33-21.23c-6-6-14.65-8.63-26-8.63q-14,0-24,6a37.54,37.54,0,0,0-14.65,15.92c-3.33,6.63-4.66,13.93-4.66,21.89a40.41,40.41,0,0,0,5.33,19.9c4,6,8.66,10.62,15.32,13.27a60,60,0,0,0,22.65,4,68.42,68.42,0,0,0,21.31-3.32A39.73,39.73,0,0,0,199.32,141.65Z"/></clipPath><clipPath id="clip-path-13"><path class="cls-1" d="M-132.12,305.53a13.48,13.48,0,0,1-4,10,14.47,14.47,0,0,1-9.33,3.32H-438.51a16,16,0,0,1-9.33-3.32,13.47,13.47,0,0,1-4-10V111.13h319.71Z"/></clipPath><clipPath id="clip-path-14"><path class="cls-1" d="M-136.12,315.48a14.47,14.47,0,0,1-9.33,3.32H-438.51a16,16,0,0,1-9.33-3.32L-292,182.13Z"/></clipPath><clipPath id="clip-path-15"><path class="cls-1" d="M-132.12,111.13l-45.29,32.51-105.91,75.64a15,15,0,0,1-18,0l-105.24-75.64-45.29-32.51,45.29-32.51L-308,8.29-300.64,3a15,15,0,0,1,18,0l7.33,5.31L-228,42.13l23.31,16.59,27.31,19.9Z"/></clipPath><clipPath id="clip-path-16"><path class="cls-1" d="M-177.41,49.43v94.21l-105.91,75.64a15,15,0,0,1-18,0l-105.24-75.64V21.56A13.33,13.33,0,0,1-393.22,8.29h173.84Z"/></clipPath><clipPath id="clip-path-17"><path class="cls-1" d="M-218.71,38.81a10.5,10.5,0,0,0,10.66,10.62h30.64l-41.3-41.14Z"/></clipPath><clipPath id="clip-path-18"><circle class="cls-2" cx="-291" cy="115" r="50"/></clipPath><clipPath id="clip-path-19"><path class="cls-1" d="M-302.24,143.67a6.32,6.32,0,0,1-4.48-1.86l-22.42-22.42a6.34,6.34,0,0,1,0-9,6.34,6.34,0,0,1,9,0l17.93,17.93L-261.89,88a6.34,6.34,0,0,1,9,0,6.34,6.34,0,0,1,0,9l-44.84,44.84A6.32,6.32,0,0,1-302.24,143.67Z"/></clipPath><clipPath id="clip-path-20"><path class="cls-1" d="M-345-121.07A13.67,13.67,0,0,1-352.5-123a10.33,10.33,0,0,1-4.26-5.22l5-2.85q1.75,4.42,6.87,4.42a6.06,6.06,0,0,0,3.62-.87,2.63,2.63,0,0,0,1.15-2.19,2.64,2.64,0,0,0-1.41-2.37,22.18,22.18,0,0,0-5-1.84,31.89,31.89,0,0,1-3.39-1.16,14.73,14.73,0,0,1-2.77-1.55,6.36,6.36,0,0,1-2.11-2.46,7.82,7.82,0,0,1-.72-3.47,7.64,7.64,0,0,1,2.88-6.25,10.66,10.66,0,0,1,6.93-2.33,11.82,11.82,0,0,1,6.38,1.71,11.64,11.64,0,0,1,4.29,4.77l-4.95,2.77a6,6,0,0,0-5.71-3.72,4.61,4.61,0,0,0-2.88.81,2.51,2.51,0,0,0-1,2.08,2.6,2.6,0,0,0,1.17,2.21,16.68,16.68,0,0,0,4.5,1.84l2.07.64q.7.23,1.92.7a11.92,11.92,0,0,1,1.88.89,14.92,14.92,0,0,1,1.51,1.12,5.79,5.79,0,0,1,1.3,1.44,8,8,0,0,1,.77,1.8,7.85,7.85,0,0,1,.32,2.29,7.65,7.65,0,0,1-3,6.36,12.33,12.33,0,0,1-7.83,2.35"/></clipPath><clipPath id="clip-path-21"><path class="cls-1" d="M-317.09-143h5.44v21.34h-5.44v-2.52a8.24,8.24,0,0,1-6.87,3.12,9.5,9.5,0,0,1-7.23-3.27,11.36,11.36,0,0,1-3-8,11.36,11.36,0,0,1,3-8,9.5,9.5,0,0,1,7.23-3.27,8.24,8.24,0,0,1,6.87,3.12Zm-10,15a5.58,5.58,0,0,0,4.17,1.69,5.65,5.65,0,0,0,4.2-1.69,5.9,5.9,0,0,0,1.67-4.33,5.9,5.9,0,0,0-1.67-4.33,5.65,5.65,0,0,0-4.2-1.69,5.58,5.58,0,0,0-4.17,1.69,5.94,5.94,0,0,0-1.64,4.33A5.94,5.94,0,0,0-327.12-128Z"/></clipPath><clipPath id="clip-path-22"><path class="cls-1" d="M-293.45-151.12H-288v29.46h-5.44v-2.48a8.17,8.17,0,0,1-6.83,3.07,9.6,9.6,0,0,1-7.27-3.22,11.11,11.11,0,0,1-3-7.89,11.11,11.11,0,0,1,3-7.89,9.6,9.6,0,0,1,7.27-3.22,8.17,8.17,0,0,1,6.83,3.07Zm-10,23.21a5.69,5.69,0,0,0,4.2,1.66,5.62,5.62,0,0,0,4.17-1.66,5.82,5.82,0,0,0,1.64-4.27,5.82,5.82,0,0,0-1.64-4.27,5.62,5.62,0,0,0-4.17-1.66,5.69,5.69,0,0,0-4.2,1.66,5.78,5.78,0,0,0-1.67,4.27A5.78,5.78,0,0,0-303.47-127.91Z"/></clipPath><clipPath id="clip-path-23"><path class="cls-1" d="M-281.33-130.08q1.08,4,5.86,4a5.42,5.42,0,0,0,4.65-2.13l4.32,2.56a10.22,10.22,0,0,1-9.06,4.57,11,11,0,0,1-8.27-3.2,11.1,11.1,0,0,1-3.12-8.07,11.2,11.2,0,0,1,3.07-8,10.43,10.43,0,0,1,7.9-3.22,9.78,9.78,0,0,1,7.54,3.24,11.44,11.44,0,0,1,3,8,13.28,13.28,0,0,1-.21,2.26Zm-.08-4.27h10.6a5.18,5.18,0,0,0-1.89-3.24,5.33,5.33,0,0,0-3.26-1.07,5.54,5.54,0,0,0-3.57,1.13A5.43,5.43,0,0,0-281.41-134.34Z"/></clipPath><clipPath id="clip-path-24"><path class="cls-1" d="M-258.77-130.08q1.08,4,5.86,4a5.42,5.42,0,0,0,4.65-2.13l4.32,2.56a10.22,10.22,0,0,1-9.06,4.57,11,11,0,0,1-8.27-3.2,11.1,11.1,0,0,1-3.12-8.07,11.2,11.2,0,0,1,3.08-8,10.43,10.43,0,0,1,7.9-3.22,9.78,9.78,0,0,1,7.54,3.24,11.44,11.44,0,0,1,3,8,13.28,13.28,0,0,1-.21,2.26Zm-.08-4.27h10.6a5.18,5.18,0,0,0-1.89-3.24,5.33,5.33,0,0,0-3.26-1.07,5.54,5.54,0,0,0-3.57,1.13A5.43,5.43,0,0,0-258.85-134.34Z"/></clipPath><clipPath id="clip-path-25"><path class="cls-1" d="M-224.7-151.12h5.44v29.46h-5.44v-2.48a8.17,8.17,0,0,1-6.83,3.07,9.6,9.6,0,0,1-7.27-3.22,11.11,11.11,0,0,1-3-7.89,11.11,11.11,0,0,1,3-7.89,9.6,9.6,0,0,1,7.27-3.22,8.17,8.17,0,0,1,6.83,3.07Zm-10,23.21a5.69,5.69,0,0,0,4.2,1.66,5.62,5.62,0,0,0,4.17-1.66,5.82,5.82,0,0,0,1.64-4.27,5.82,5.82,0,0,0-1.64-4.27,5.62,5.62,0,0,0-4.17-1.66,5.69,5.69,0,0,0-4.2,1.66,5.78,5.78,0,0,0-1.67,4.27A5.78,5.78,0,0,0-234.71-127.91Z"/></clipPath><clipPath id="clip-path-26"><path class="cls-1" d="M-210.7-122.17a3.62,3.62,0,0,1-2.65,1.11,3.62,3.62,0,0,1-2.65-1.11,3.61,3.61,0,0,1-1.11-2.65,3.61,3.61,0,0,1,1.11-2.65,3.62,3.62,0,0,1,2.65-1.11,3.62,3.62,0,0,1,2.65,1.11,3.62,3.62,0,0,1,1.11,2.65,3.61,3.61,0,0,1-1.11,2.65"/></clipPath><clipPath id="clip-path-27"><path class="cls-1" d="M-204.24-145.55a3,3,0,0,1-2.25-1,3.22,3.22,0,0,1-1-2.32,3.29,3.29,0,0,1,1-2.34,3,3,0,0,1,2.25-1,3.05,3.05,0,0,1,2.29,1,3.3,3.3,0,0,1,1,2.34,3.22,3.22,0,0,1-1,2.32A3.08,3.08,0,0,1-204.24-145.55Zm-2.59,23.41h5.23V-143h-5.23Z"/></clipPath><clipPath id="clip-path-28"><path class="cls-1" d="M-180.65-124.33a10.94,10.94,0,0,1-8,3.27,10.86,10.86,0,0,1-8-3.27,10.89,10.89,0,0,1-3.26-8,10.89,10.89,0,0,1,3.26-8,10.86,10.86,0,0,1,8-3.27,10.94,10.94,0,0,1,8,3.27,10.85,10.85,0,0,1,3.28,8,10.85,10.85,0,0,1-3.28,8m-12.13-3.78a5.54,5.54,0,0,0,4.12,1.67,5.61,5.61,0,0,0,4.14-1.67,5.73,5.73,0,0,0,1.66-4.23,5.73,5.73,0,0,0-1.66-4.23,5.61,5.61,0,0,0-4.14-1.67,5.54,5.54,0,0,0-4.12,1.67,5.77,5.77,0,0,0-1.64,4.23,5.77,5.77,0,0,0,1.64,4.23"/></clipPath><clipPath id="clip-path-29"><path class="cls-1" d="M-386.13-130.82H-413a2.81,2.81,0,0,1-2.81-2.81v-26a2.81,2.81,0,0,1,2.81-2.81h40.68a2.81,2.81,0,0,1,2.81,2.81,2.81,2.81,0,0,1-2.81,2.81h-37.87v20.37h24a2.81,2.81,0,0,1,2.81,2.81,2.81,2.81,0,0,1-2.81,2.81"/></clipPath><clipPath id="clip-path-30"><path class="cls-1" d="M-381.09-104.28a2.8,2.8,0,0,1-2-.82l-13.08-13.07H-413a2.81,2.81,0,0,1-2.81-2.81,2.81,2.81,0,0,1,2.81-2.81h18a2.81,2.81,0,0,1,2,.82l9.11,9.11v-6.61a2.81,2.81,0,0,1,2.81-2.81h6.38v-20.54H-400a2.71,2.71,0,0,1-2.69-2.81,2.71,2.71,0,0,1,2.69-2.81h28.11a2.81,2.81,0,0,1,2.81,2.81v26.15a2.81,2.81,0,0,1-2.81,2.81h-6.38v10.58a2.81,2.81,0,0,1-1.73,2.59,2.8,2.8,0,0,1-1.07.21"/></clipPath><clipPath id="clip-path-31"><polyline class="cls-1" points="-372.29 -156.8 -369.48 -156.8 -369.48 -162.42 -375.29 -162.42"/></clipPath><clipPath id="clip-path-32"><polyline class="cls-1" points="-400.01 -143.81 -402.79 -143.81 -402.79 -149.43 -396.68 -149.43"/></clipPath><clipPath id="clip-path-33"><polyline class="cls-1" points="-413 -118.2 -415.77 -118.2 -415.77 -123.81 -406.47 -123.81"/></clipPath><clipPath id="clip-path-34"><polyline class="cls-1" points="-386.13 -130.82 -382.11 -130.82 -382.11 -136.44 -390.03 -136.44"/></clipPath><clipPath id="clip-path-35"><path class="cls-1" d="M-368-159.61a4.39,4.39,0,0,1-4.39,4.39,4.39,4.39,0,0,1-4.39-4.39,4.39,4.39,0,0,1,4.39-4.39,4.39,4.39,0,0,1,4.39,4.39"/></clipPath><clipPath id="clip-path-36"><path class="cls-1" d="M-396.68-146.62a4.39,4.39,0,0,1-4.39,4.39,4.39,4.39,0,0,1-4.39-4.39,4.39,4.39,0,0,1,4.39-4.39,4.39,4.39,0,0,1,4.39,4.39"/></clipPath><clipPath id="clip-path-37"><path class="cls-1" d="M-380-133.63a4.39,4.39,0,0,1-4.39,4.39,4.39,4.39,0,0,1-4.39-4.39,4.39,4.39,0,0,1,4.39-4.39,4.39,4.39,0,0,1,4.39,4.39"/></clipPath><clipPath id="clip-path-38"><path class="cls-1" d="M-409.22-121a4.39,4.39,0,0,1-4.39,4.39A4.39,4.39,0,0,1-418-121a4.39,4.39,0,0,1,4.39-4.39,4.39,4.39,0,0,1,4.39,4.39"/></clipPath></defs><title>1</title><g class="cls-3"><g class="cls-4"><rect class="cls-5" x="-4.83" y="106.13" width="329.71" height="217.67"/></g></g><g class="cls-6"><g class="cls-4"><rect class="cls-7" x="-0.84" y="177.13" width="321.72" height="146.68"/></g></g><g class="cls-8"><g class="cls-4"><rect class="cls-9" x="-4.83" y="-5" width="329.71" height="232.27"/></g></g><g class="cls-10"><g class="cls-4"><rect class="cls-11" x="40.46" y="3.29" width="239.13" height="223.97"/></g></g><g class="cls-12"><g class="cls-4"><rect class="cls-13" x="228.29" y="3.29" width="51.3" height="51.14"/></g></g><g class="cls-14"><g class="cls-4"><rect class="cls-15" x="105.07" y="60.35" width="109.91" height="109.52"/></g></g></svg>