<?xml version="1.0" encoding="UTF-8"?>
<svg width="18px" height="20px" viewBox="0 0 18 20" version="1.1" xmlns="http://www.w3.org/2000/svg" xmlns:xlink="http://www.w3.org/1999/xlink">
    <!-- Generator: Sketch 54.1 (76490) - https://sketchapp.com -->
    <title>Layers</title>
    <desc>Created with Sketch.</desc>
    <g id="Page-1" stroke="none" stroke-width="1" fill="none" fill-rule="evenodd">
        <g id="Profile" transform="translate(-28.000000, -112.000000)" fill="#4355FF">
            <g id="Fefault-/-Sidebar-Expanded">
                <g id="Sidebar-Menu-/-Sub-level" transform="translate(0.000000, 100.000000)">
                    <g id="Dashboard">
                        <g id="Dark-UI-/-Nav-tab">
                            <g id="Group" transform="translate(28.000000, 12.000000)">
                                <g id="Layers">
                                    <path d="M9.9336061,14.072447 L16.36,8.9564761 L16.5181585,8.8312381 C17.1676248,8.3169571 17.2772143,7.3735535 16.7629333,6.72408713 C16.6917232,6.63415859 16.6104327,6.55269514 16.5206557,6.48129411 L9.9336854,1.24257445 C9.3871201,0.80788259 8.6128799,0.80788259 8.0663146,1.24257445 L1.47482784,6.48488609 C0.82645598,7.00054628 0.71887192,7.94418071 1.23453211,8.5925526 C1.30500305,8.6811601 1.38527899,8.7615046 1.47382636,8.8320511 L1.63,8.9564761 L8.0659024,14.0730648 C8.6126744,14.5077525 9.3871218,14.5074963 9.9336061,14.072447 Z" id="Shape"></path>
                                    <path d="M8.0563554,16.6706981 L2.33593024,12.122919 C1.94553994,11.8125559 1.37746707,11.8774308 1.06710397,12.2678211 C1.06471678,12.2708238 1.06234874,12.2738418 1.06,12.2768747 L1.06,12.2768747 C0.75257288,12.6738539 0.82516916,13.244888 1.22214834,13.5523151 C1.22358765,13.5534297 1.2250303,13.55454 1.22647627,13.555646 L8.0872776,18.8031356 C8.6250734,19.2144692 9.371757,19.2145375 9.909628,18.8033023 L16.7677785,13.559828 C17.1693192,13.2528257 17.2459576,12.6784381 16.9389553,12.2768974 C16.9376429,12.2751809 16.9363245,12.2734691 16.935,12.2717619 L16.935,12.2717619 C16.6266937,11.8743807 16.0546209,11.8021712 15.6572397,12.1104775 C15.654352,12.112718 15.6514778,12.1149757 15.6486172,12.1172508 L9.9235044,16.6705218 C9.377022,17.1051477 8.6029199,17.1052208 8.0563554,16.6706981 Z" id="Path" opacity="0.3"></path>
                                </g>
                            </g>
                        </g>
                    </g>
                </g>
            </g>
        </g>
    </g>
</svg>