<?xml version="1.0" encoding="UTF-8"?>
<svg width="18px" height="18px" viewBox="0 0 18 18" version="1.1" xmlns="http://www.w3.org/2000/svg" xmlns:xlink="http://www.w3.org/1999/xlink">
    <!-- Generator: Sketch 54.1 (76490) - https://sketchapp.com -->
    <title>001-facebook</title>
    <desc>Created with Sketch.</desc>
    <g id="Page-1" stroke="none" stroke-width="1" fill="none" fill-rule="evenodd">
        <g id="Notifications" transform="translate(-1459.000000, -198.000000)" fill="#475993" fill-rule="nonzero">
            <g id="Header-/-Default" transform="translate(255.000000, 1.000000)">
                <g id="Notifications" transform="translate(1189.000000, 81.000000)">
                    <g id="list" transform="translate(0.000000, 96.000000)">
                        <g id="not-item">
                            <g id="001-facebook" transform="translate(15.000000, 20.000000)">
                                <path d="M15.5663032,0 L2.42436675,0 C1.08550122,0 8.80195599e-05,1.08536919 8.80195599e-05,2.42427873 L8.80195599e-05,15.5663032 C8.80195599e-05,16.9052127 1.08545721,17.9905819 2.42436675,17.9905819 L8.90590709,17.9905819 L8.91695355,11.5617213 L7.24673839,11.5617213 C7.02968215,11.5617213 6.853511,11.3862103 6.85267482,11.169154 L6.84466504,9.09686553 C6.84382885,8.87862103 7.02052812,8.70126161 7.23877262,8.70126161 L8.9059511,8.70126161 L8.9059511,6.69890465 C8.9059511,4.37518826 10.3251345,3.10990709 12.3980391,3.10990709 L14.0990171,3.10990709 C14.3166455,3.10990709 14.4931247,3.2863423 14.4931247,3.50401467 L14.4931247,5.25137897 C14.4931247,5.46896333 14.3167775,5.64535452 14.0992372,5.64548655 L13.0553692,5.64597066 C11.9280587,5.64597066 11.7097702,6.1816577 11.7097702,6.9678044 L11.7097702,8.70130562 L14.1868606,8.70130562 C14.4228851,8.70130562 14.6060098,8.90740342 14.5781956,9.14179951 L14.332577,11.214088 C14.3090758,11.4123961 14.1409144,11.5618093 13.9412421,11.5618093 L11.7208166,11.5618093 L11.7097702,17.9906699 L15.5663912,17.9906699 C16.9052567,17.9906699 17.9906259,16.9053007 17.9906259,15.5664352 L17.9906259,2.42427873 C17.9905819,1.08536919 16.9052127,0 15.5663032,0 Z" id="Path"></path>
                            </g>
                        </g>
                    </g>
                </g>
            </g>
        </g>
    </g>
</svg>