<?xml version="1.0" encoding="UTF-8"?>
<svg width="18px" height="18px" viewBox="0 0 18 18" version="1.1" xmlns="http://www.w3.org/2000/svg" xmlns:xlink="http://www.w3.org/1999/xlink">
    <!-- Generator: Sketch 54.1 (76490) - https://sketchapp.com -->
    <title>002-instagram</title>
    <desc>Created with Sketch.</desc>
    <defs>
        <radialGradient cx="20.4994381%" cy="87.3920768%" fx="20.4994381%" fy="87.3920768%" r="110.2824%" id="radialGradient-1">
            <stop stop-color="#FAE100" offset="0%"></stop>
            <stop stop-color="#FADC04" offset="5.44%"></stop>
            <stop stop-color="#FBCE0E" offset="11.67%"></stop>
            <stop stop-color="#FCB720" offset="18.29%"></stop>
            <stop stop-color="#FE9838" offset="25.14%"></stop>
            <stop stop-color="#FF7950" offset="30.54%"></stop>
            <stop stop-color="#FF1C74" offset="49.22%"></stop>
            <stop stop-color="#6C1CD1" offset="100%"></stop>
        </radialGradient>
        <linearGradient x1="36.8759009%" y1="42.6177546%" x2="-154.039644%" y2="-64.7722395%" id="linearGradient-2">
            <stop stop-color="#A1B5D8" stop-opacity="0" offset="0%"></stop>
            <stop stop-color="#90A2BD" stop-opacity="0.309804" offset="30.94%"></stop>
            <stop stop-color="#7C8B9C" stop-opacity="0.756863" offset="75.54%"></stop>
            <stop stop-color="#748290" offset="100%"></stop>
        </linearGradient>
        <linearGradient x1="49.9996672%" y1="41.2557065%" x2="49.9996672%" y2="119.349194%" id="linearGradient-3">
            <stop stop-color="#FAE100" stop-opacity="0" offset="0%"></stop>
            <stop stop-color="#FCA800" stop-opacity="0.305882" offset="30.68%"></stop>
            <stop stop-color="#FE7300" stop-opacity="0.627451" offset="62.75%"></stop>
            <stop stop-color="#FF5200" stop-opacity="0.866667" offset="86.85%"></stop>
            <stop stop-color="#FF4500" offset="100%"></stop>
        </linearGradient>
        <linearGradient x1="31.6097795%" y1="31.2687228%" x2="1.2163078%" y2="1.03725639%" id="linearGradient-4">
            <stop stop-color="#833AB4" stop-opacity="0" offset="0%"></stop>
            <stop stop-color="#833AB4" offset="100%"></stop>
        </linearGradient>
        <linearGradient x1="58.2371646%" y1="88.5512159%" x2="41.8417883%" y2="11.3608773%" id="linearGradient-5">
            <stop stop-color="#833AB4" stop-opacity="0" offset="0%"></stop>
            <stop stop-color="#833AB4" offset="100%"></stop>
        </linearGradient>
        <linearGradient x1="60.5048093%" y1="60.5047823%" x2="-15.9715487%" y2="-15.9716059%" id="linearGradient-6">
            <stop stop-color="#833AB4" stop-opacity="0" offset="0%"></stop>
            <stop stop-color="#833AB4" offset="100%"></stop>
        </linearGradient>
        <linearGradient x1="40.2793567%" y1="33.2168435%" x2="5.2944048%" y2="-6.34929376%" id="linearGradient-7">
            <stop stop-color="#833AB4" stop-opacity="0" offset="0%"></stop>
            <stop stop-color="#833AB4" offset="100%"></stop>
        </linearGradient>
        <linearGradient x1="81.5887586%" y1="19.065856%" x2="17.2310239%" y2="82.5326174%" id="linearGradient-8">
            <stop stop-color="#833AB4" offset="0%"></stop>
            <stop stop-color="#9C3495" offset="9.22%"></stop>
            <stop stop-color="#DC2546" offset="29.27%"></stop>
            <stop stop-color="#FD1D1D" offset="39.2%"></stop>
            <stop stop-color="#FC6831" offset="55.89%"></stop>
            <stop stop-color="#FC9B40" offset="68.87%"></stop>
            <stop stop-color="#FCAF45" offset="75.21%"></stop>
            <stop stop-color="#FDB750" offset="78.06%"></stop>
            <stop stop-color="#FECB6A" offset="86.56%"></stop>
            <stop stop-color="#FFD87A" offset="94.15%"></stop>
            <stop stop-color="#FFDC80" offset="100%"></stop>
        </linearGradient>
    </defs>
    <g id="Page-1" stroke="none" stroke-width="1" fill="none" fill-rule="evenodd">
        <g id="Notifications" transform="translate(-1459.000000, -255.000000)" fill-rule="nonzero">
            <g id="Header-/-Default" transform="translate(255.000000, 1.000000)">
                <g id="Notifications" transform="translate(1189.000000, 81.000000)">
                    <g id="list" transform="translate(0.000000, 96.000000)">
                        <g id="not-item" transform="translate(0.000000, 58.000000)">
                            <g id="002-instagram" transform="translate(15.000000, 19.000000)">
                                <path d="M17.6918335,3.21954346 C17.5279999,1.68447874 16.3156586,0.471862793 14.7804565,0.308166504 C10.9305725,-0.102722168 7.06942751,-0.102722168 3.21968078,0.308166504 C1.68447874,0.472000113 0.472000113,1.68447874 0.308166504,3.21954346 C-0.102722168,7.06929015 -0.102722168,10.9305725 0.308166504,14.7803192 C0.472000113,16.3155213 1.68447874,17.5279999 3.21954346,17.6918335 C7.06929015,18.1027222 10.9305725,18.1027222 14.7804565,17.6918335 C16.3156586,17.5279999 17.5279999,16.3155213 17.6918335,14.7803192 C18.1027222,10.9305725 18.1027222,7.06942751 17.6918335,3.21954346 Z" id="Path" fill="url(#radialGradient-1)"></path>
                                <path d="M16.7128143,3.87062072 C16.5675201,2.50845335 15.491684,1.43247987 14.1293793,1.28704834 C10.7131806,0.922576922 7.28681945,0.922576922 3.87062072,1.28704834 C2.50845335,1.43247987 1.43247987,2.50845335 1.28704834,3.87062072 C0.922576922,7.28681945 0.922576922,10.7131806 1.28704834,14.129242 C1.43247987,15.4915466 2.50845335,16.5675201 3.87062072,16.7128143 C7.28681945,17.0774231 10.7131806,17.0774231 14.129242,16.7128143 C15.4915466,16.5675201 16.5675201,15.4915466 16.7128143,14.129242 C17.0774231,10.7131806 17.0774231,7.28681945 16.7128143,3.87062072 L16.7128143,3.87062072 Z" id="Path" fill="url(#linearGradient-2)"></path>
                                <path d="M0.269714355,14.4071961 C0.282073992,14.5316162 0.29484559,14.6560364 0.308166504,14.7804565 C0.472000113,16.3155213 1.68447874,17.5279999 3.21968078,17.6918335 C7.06942751,18.1027222 10.9307098,18.1027222 14.7804565,17.6918335 C16.3156586,17.5279999 17.5279999,16.3155213 17.6918335,14.7804565 C17.7051544,14.6560364 17.717926,14.5316162 17.730423,14.4071961 L0.269714355,14.4071961 Z" id="Path" fill="url(#linearGradient-3)"></path>
                                <path d="M17.6918335,14.7803192 C17.9126587,12.711731 18.0145569,10.6398468 17.9980774,8.5682373 L13.8836975,4.45385742 C13.3696747,3.86705018 12.6188965,3.50079346 11.7366943,3.46907043 C9.92243957,3.40370177 8.10241699,3.40699767 6.28788758,3.4693451 C4.780838,3.52125548 3.7269745,4.53419494 3.45671082,6.02297972 C3.40905762,6.28582764 3.38049316,6.55210877 3.34300233,6.81687928 L3.34300233,11.1814728 C3.36373903,11.3229218 3.39422607,11.4636841 3.40370177,11.605957 C3.46412658,12.5115051 3.83628846,13.2871399 4.43215941,13.8118744 L8.61904905,17.9986267 C10.6737671,18.0130463 12.7286224,17.9108734 14.7804565,17.6918335 C16.3156586,17.5279999 17.5279999,16.3155213 17.6918335,14.7803192 L17.6918335,14.7803192 Z" id="Path" fill="url(#linearGradient-4)"></path>
                                <path d="M17.6918335,14.7804565 C17.5281372,16.3153839 16.3153839,17.5281372 14.7804565,17.6918335 C12.7288971,17.9107361 10.6736298,18.0130463 8.61918641,17.9986267 L4.43861388,13.8180542 C4.92324827,14.2422638 5.55496214,14.5005799 6.2880249,14.528183 C8.10214235,14.5962982 9.92257692,14.5945129 11.7366943,14.5291443 C13.3775024,14.4698181 14.5648498,13.2554169 14.6160736,11.6146088 C14.6707306,9.87245177 14.6707306,8.12576292 14.6160736,6.38360596 C14.5927277,5.62664795 14.3269959,4.96060179 13.8864441,4.456604 L17.9982147,8.56837462 C18.0144195,10.6397095 17.9125214,12.7118683 17.6918335,14.7804565 Z" id="Path" fill="url(#linearGradient-5)"></path>
                                <path d="M11.1239319,7.05088807 C10.5968628,6.47698975 9.84059142,6.11691286 9,6.11691286 C7.40780641,6.11691286 6.11691286,7.40780641 6.11691286,9 C6.11691286,9.84059142 6.47698975,10.5968628 7.05088807,11.1239319 L13.7213745,17.7944183 C14.0744476,17.7636566 14.4275207,17.7294617 14.7803192,17.6918335 C16.3155213,17.5279999 17.5279999,16.3155213 17.6918335,14.7803192 C17.7294617,14.4275207 17.7636566,14.0744476 17.7944183,13.7213745 L11.1239319,7.05088807 Z" id="Path" fill="url(#linearGradient-6)"></path>
                                <path d="M17.9651184,10.9389496 L12.5966492,5.57061768 C12.471405,5.40623475 12.2740631,5.29953005 12.0514526,5.29953005 C11.672699,5.29953005 11.3654938,5.60659788 11.3654938,5.98548888 C11.3654938,6.20809938 11.4721985,6.40544129 11.6365814,6.53068543 L17.8691254,12.7633667 C17.9114227,12.1554108 17.9434204,11.5471802 17.9651184,10.9389496 L17.9651184,10.9389496 Z" id="Path" fill="url(#linearGradient-7)"></path>
                                <path d="M3.34300233,6.81687928 C3.38049316,6.55210877 3.40905762,6.28582764 3.45671082,6.02297972 C3.72683714,4.53419494 4.780838,3.52125548 6.28788758,3.4693451 C8.10241699,3.40699767 9.92243957,3.40370177 11.7366943,3.46907043 C13.3769531,3.52812196 14.5648498,4.74266053 14.6160736,6.38346864 C14.6705933,8.12576292 14.6705933,9.87231445 14.6160736,11.6146088 C14.5648498,13.2554169 13.3773651,14.4698181 11.7368317,14.5290069 C9.92257692,14.5945129 8.10214235,14.5961609 6.2880249,14.5280457 C4.64749144,14.4663849 3.51342773,13.2490997 3.40370177,11.6058197 C3.39422607,11.4636841 3.36373903,11.3227844 3.34300233,11.1813354 C3.34300233,9.72647093 3.34300233,8.27160645 3.34300233,6.81687928 Z M9.00151063,13.5565796 C9.83180236,13.5565796 10.6629181,13.5814361 11.4921112,13.5508117 C12.7922058,13.5026093 13.5918732,12.7266998 13.6222229,11.4278412 C13.6598511,9.80941774 13.6598511,8.18879699 13.6222229,6.57023621 C13.5918732,5.27165223 12.7916565,4.47761535 11.4921112,4.45001221 C9.84265137,4.41513063 8.19140625,4.41540527 6.5419464,4.45001221 C5.25228884,4.47706603 4.45028688,5.25503538 4.41526795,6.53933714 C4.37077332,8.17822266 4.37077332,9.81999207 4.41526795,11.4588776 C4.45028688,12.743042 5.25228884,13.5030213 6.54208376,13.5508117 C7.36083984,13.5812988 8.18165587,13.5565796 9.00151063,13.5565796 L9.00151063,13.5565796 Z" id="Shape" fill="url(#linearGradient-8)"></path>
                                <g id="Group" transform="translate(3.339844, 3.410156)" fill="#FFFFFF">
                                    <path d="M0.00315857812,3.40672303 C0.0406494141,3.14195252 0.0692138672,2.87567139 0.116867074,2.61282347 C0.386993391,1.12403869 1.44099425,0.111099234 2.94804383,0.0591888516 C4.76257324,-0.00315857812 6.58259582,-0.00645447656 8.39685059,0.0589141758 C10.0371094,0.117965707 11.2250061,1.33250428 11.2762299,2.97331239 C11.3307495,4.71560667 11.3307495,6.4621582 11.2762299,8.20445252 C11.2250061,9.84526063 10.0375214,11.0596619 8.39698791,11.1188507 C6.58273317,11.1843567 4.7622986,11.1860047 2.94818115,11.1178894 C1.30764769,11.0562286 0.173583984,9.83894347 0.0638580234,8.19566346 C0.0543823242,8.05352783 0.0238952812,7.91262816 0.00315857812,7.7711792 C0.00315857812,6.31631468 0.00315857812,4.8614502 0.00315857812,3.40672303 Z M5.66166688,10.1464233 C6.49195861,10.1464233 7.32307433,10.1712799 8.15226746,10.1406555 C9.45236208,10.092453 10.2520294,9.31654357 10.2823791,8.01768495 C10.3200073,6.39926149 10.3200073,4.77864074 10.2823791,3.16007996 C10.2520294,1.86149598 9.45181273,1.0674591 8.15226746,1.03985596 C6.50280762,1.00497438 4.8515625,1.00524902 3.20210265,1.03985596 C1.91244509,1.06690978 1.11044313,1.84487913 1.0754242,3.12918089 C1.03092957,4.76806641 1.03092957,6.40983582 1.0754242,8.0487213 C1.11044313,9.33288574 1.91244509,10.092865 3.20224001,10.1406555 C4.02099609,10.1711426 4.84181212,10.1464233 5.66166688,10.1464233 L5.66166688,10.1464233 Z" id="Shape"></path>
                                    <path d="M5.66015625,2.70689393 C4.06796266,2.70689393 2.77706911,3.99765016 2.77706911,5.58984375 C2.77706911,7.18217469 4.06796266,8.47293089 5.66015625,8.47293089 C7.25248719,8.47293089 8.54324339,7.18217469 8.54324339,5.58984375 C8.54324339,3.99765016 7.25248719,2.70689393 5.66015625,2.70689393 Z M5.66015625,7.48031618 C4.61604308,7.48031618 3.76968382,6.63395692 3.76968382,5.58984375 C3.76968382,4.54573058 4.61604308,3.69937132 5.66015625,3.69937132 C6.70426942,3.69937132 7.55062868,4.54573058 7.55062868,5.58984375 C7.55062868,6.63395692 6.70426942,7.48031618 5.66015625,7.48031618 Z" id="Shape"></path>
                                    <path d="M9.39743044,2.57533263 C9.39743044,2.95408631 9.09036253,3.26115418 8.71160889,3.26115418 C8.33285524,3.26115418 8.02565002,2.95408631 8.02565002,2.57533263 C8.02565002,2.19644163 8.33285524,1.8893738 8.71160889,1.8893738 C9.09036253,1.8893738 9.39743044,2.19644163 9.39743044,2.57533263 Z" id="Path"></path>
                                </g>
                            </g>
                        </g>
                    </g>
                </g>
            </g>
        </g>
    </g>
</svg>