<?xml version="1.0" encoding="utf-8"?>
<svg width="30px" height="31px" viewBox="0 0 30 31" version="1.1" xmlns:xlink="http://www.w3.org/1999/xlink" xmlns="http://www.w3.org/2000/svg">
  <desc>Created with Lunacy</desc>
  <g id="invoice">
    <path d="M17.8857 27.123L17.8857 30.4615L0 30.4615L0 0L17.273 0L17.273 5.53538L22.6154 5.53538L22.6154 14.1288L17.8857 14.1288L17.8857 27.123Z" transform="translate(0 0.256958)" id="Path" fill="#4355FF" stroke="none" />
    <path d="M0 0L5.53846 5.53846L3.80041e-15 5.53846L0 0Z" transform="translate(17.0769 0.256958)" id="Path" fill="#45E0EE" stroke="none" />
    <path d="M6.46179 0C10.0304 0.000248077 12.9231 2.89326 12.9231 6.46191C12.9228 10.0306 10.0299 12.9233 6.46129 12.9231C2.89271 12.9231 -0.000248009 10.0298 0 6.46117C0 2.89252 2.89321 -0.000248014 6.46179 0ZM11.144 6.46117C11.1435 3.87546 9.0472 1.77961 6.46129 1.77961C3.87563 1.77986 1.77958 3.8762 1.77982 6.46216C1.77982 9.04786 3.87613 11.144 6.46179 11.144C9.04794 11.144 11.1442 9.04737 11.144 6.46117Z" transform="translate(2.307678 4.410828)" id="Shape" fill="#F4B844" stroke="none" />
    <path d="M4.84577 0C7.5224 -0.000256686 9.69231 2.16939 9.69231 4.84603C9.69231 7.52266 7.52266 9.69256 4.84602 9.69231C2.16939 9.69231 -0.000256686 7.5224 0 4.84577C0 2.16965 2.16939 0 4.84577 0Z" transform="translate(4.15387 5.79541)" id="Path" fill="#FEDB41" stroke="none" />
    <path d="M14.7162 0.923077L0.51735 0.923077C0.231646 0.923077 0 0.716422 0 0.461542C0 0.206661 0.231646 6.63399e-06 0.51735 6.63399e-06L14.7109 6.63399e-06C14.9966 -0.00134555 15.2295 0.204182 15.2308 0.459063C15.2323 0.714169 15.0019 0.921724 14.7162 0.923077L14.7162 0.923077Z" transform="translate(3.230774 27.02618)" id="Path" fill="#FEDB41" stroke="none" />
    <path d="M9.16982 0.923077L0.522488 0.923077C0.233946 0.923077 0 0.716421 0 0.461538C0 0.20643 0.233946 0 0.522488 0L9.16982 0C9.45836 0 9.69231 0.20643 9.69231 0.461538C9.69231 0.716421 9.45836 0.923077 9.16982 0.923077Z" transform="translate(3.230774 24.71851)" id="Path" fill="#FEDB41" stroke="none" />
    <path d="M1.84604 3.24606C1.42097 3.2463 1.07633 2.92308 1.07607 2.52441C1.07607 2.12574 1.4207 1.80251 1.84578 1.80251C2.27085 1.80276 2.61549 2.12599 2.61522 2.52465C2.61522 2.8035 2.85628 3.02959 3.1536 3.02959C3.45091 3.02959 3.69197 2.8035 3.69197 2.52465C3.69092 1.70636 3.08025 1.00025 2.22695 0.830128L2.22695 0.504931C2.22695 0.226085 1.98589 0 1.68858 0C1.39126 0 1.1502 0.226085 1.1502 0.504931L1.1502 0.920858C0.332651 1.23323 -0.13501 2.04463 0.0345469 2.857C0.204103 3.66963 0.963296 4.25592 1.84604 4.25592C2.26218 4.25592 2.60287 4.56657 2.61443 4.95661C2.62626 5.34689 2.30476 5.6748 1.88915 5.69675C1.84578 5.68614 1.80083 5.68072 1.75587 5.68047C1.73563 5.68047 1.71539 5.68171 1.69541 5.68393C1.33658 5.61588 1.07817 5.32076 1.07712 4.97732C1.07712 4.69847 0.836063 4.47239 0.538747 4.47239C0.241432 4.47239 0.000372765 4.69847 0.000372765 4.97732C0.00247579 5.70538 0.488275 6.35503 1.2175 6.60454L1.2175 6.87968C1.2175 7.15853 1.45856 7.38462 1.75587 7.38462C2.05319 7.38462 2.29425 7.15853 2.29425 6.87968L2.29425 6.6568C3.19855 6.44453 3.79239 5.63338 3.6783 4.76553C3.56421 3.89768 2.77821 3.24606 1.84604 3.24606Z" transform="translate(6.923096 6.718506)" id="Path" fill="#4355FF" stroke="none" />
    <path d="M0.461538 4.61539C0.206656 4.61539 0 4.38891 0 4.10959L0 0.505796C0 0.226472 0.206656 0 0.461538 0C0.716421 0 0.923077 0.226472 0.923077 0.505796L0.923077 4.10959C0.923077 4.38891 0.716421 4.61539 0.461538 4.61539Z" transform="translate(8.307678 18.25696)" id="Path" fill="#45E0EE" stroke="none" />
    <path d="M0.461538 3.23077C0.206656 3.23077 0 2.98967 0 2.69231L0 0.538462C0 0.241098 0.206656 0 0.461538 0C0.716421 0 0.923077 0.241098 0.923077 0.538462L0.923077 2.69231C0.923077 2.98967 0.716421 3.23077 0.461538 3.23077Z" transform="translate(10.61536 17.79541)" id="Path" fill="#45E0EE" stroke="none" />
    <path d="M0.461539 3.23077C0.206656 3.23077 0 2.98967 0 2.69231L0 0.538462C0 0.241098 0.206656 0 0.461539 0C0.716421 0 0.923077 0.241098 0.923077 0.538462L0.923077 2.69231C0.923077 2.98967 0.716421 3.23077 0.461539 3.23077Z" transform="translate(6 17.79541)" id="Path" fill="#45E0EE" stroke="none" />
    <path d="M3.61561e-15 12.8519L3.61561e-15 0L12 0L12 16.1538L0 16.1538L3.61561e-15 12.8519Z" transform="translate(18 14.56464)" id="Path" fill="#45E0EE" stroke="none" />
    <path d="M0 0L8.76923 0L8.76923 1.84615L0 1.84615L0 0Z" transform="translate(19.38464 16.41083)" id="Path" fill="#FEDB41" stroke="none" />
    <g id="Group" transform="translate(19.38464 20.10309)">
      <path d="M0 0L1.82576 0L1.82576 5.50019L0 5.50019L0 0Z" transform="translate(6.91222 3.691753)" id="Path" fill="#4355FF" stroke="none" />
      <path d="M0 0L1.82576 0L1.82576 1.88307L0 1.88307L0 0Z" transform="translate(6.91222 0.05093461)" id="Path" fill="#4355FF" stroke="none" />
      <path d="M3.63849e-15 0L1.82551 0L1.82551 1.88282L0 1.88282L3.63849e-15 0Z" transform="translate(3.478238 7.309121)" id="Path" fill="#4355FF" stroke="none" />
      <path d="M3.63849e-15 0L1.82551 0L1.82551 1.88282L0 1.88282L3.63849e-15 0Z" transform="translate(3.478238 3.691753)" id="Path" fill="#4355FF" stroke="none" />
      <path d="M3.63849e-15 0L1.82551 0L1.82551 1.88307L0 1.88307L3.63849e-15 0Z" transform="translate(3.478238 0.05093461)" id="Path" fill="#4355FF" stroke="none" />
      <path d="M0 0L1.82551 0L1.82551 1.88282L0 1.88282L0 0Z" transform="translate(0.06025844 7.309121)" id="Path" fill="#4355FF" stroke="none" />
      <path d="M0 0L1.82551 0L1.82551 1.88282L0 1.88282L0 0Z" transform="translate(0.06025844 3.691753)" id="Path" fill="#4355FF" stroke="none" />
      <path d="M0 0L1.82551 0L1.82551 1.88307L0 1.88307L0 0Z" transform="translate(0.06025844 0.05093461)" id="Path" fill="#4355FF" stroke="none" />
    </g>
  </g>
</svg>