<?xml version="1.0" encoding="UTF-8"?>
<svg width="18px" height="18px" viewBox="0 0 18 18" version="1.1" xmlns="http://www.w3.org/2000/svg" xmlns:xlink="http://www.w3.org/1999/xlink"  class="kt-svg-icon">
    <!-- Generator: Sketch 54.1 (76490) - https://sketchapp.com -->
    <title>001-user-silhouette</title>
    <desc>Created with Sketch.</desc>
    <g id="Page-1" stroke="none" stroke-width="1" fill="none" fill-rule="evenodd">
        <g id="Profile" transform="translate(-1606.000000, -181.000000)" fill="#0ABB87">
            <g id="Header-/-Default" transform="translate(255.000000, 1.000000)">
                <g id="profile-drop-down" transform="translate(1326.000000, 81.000000)">
                    <g id="List" transform="translate(0.000000, 83.000000)">
                        <g id="list-item">
                            <g id="001-user-silhouette" transform="translate(25.000000, 16.000000)">
                                <path d="M9.00363504,9.53827518 C11.2224964,9.53827518 13.0214453,7.41210811 13.0214453,4.78937101 C13.0214453,1.15235381 11.2225839,0.0405110565 9.00363504,0.0405110565 C6.78459854,0.0405110565 4.98582482,1.15235381 4.98582482,4.78937101 C4.98586861,7.41210811 6.78464234,9.53827518 9.00363504,9.53827518 Z" id="Path"></path>
                                <path d="M17.8757956,16.5280246 L15.8487591,11.9168845 C15.7560438,11.7058821 15.5931679,11.5308796 15.390438,11.4242948 L12.2445985,9.77059459 C12.1752263,9.73419656 12.0912263,9.74127273 12.0288613,9.7889484 C11.1391095,10.4685258 10.0929635,10.8277297 9.00363504,10.8277297 C7.91413139,10.8277297 6.86807299,10.4685258 5.97832117,9.7889484 C5.91578102,9.74127273 5.83178102,9.73419656 5.76240876,9.77059459 L2.61678832,11.4242948 C2.4139708,11.5308796 2.25127007,11.7057936 2.15846715,11.9168845 L0.131430657,16.5280246 C-0.00832116788,16.8459214 0.0203211679,17.2096364 0.208072993,17.5012187 C0.395737226,17.7927568 0.713343066,17.966742 1.05770803,17.966742 L16.9494307,17.966742 C17.2937956,17.966742 17.6114891,17.7926683 17.7991533,17.5011744 C17.9868175,17.2096364 18.0155474,16.8457887 17.8757956,16.5280246 Z" id="Path"></path>
                            </g>
                        </g>
                    </g>
                </g>
            </g>
        </g>
    </g>
</svg>