<?xml version="1.0" encoding="UTF-8"?>
<svg width="18px" height="18px" viewBox="0 0 18 18" version="1.1" xmlns="http://www.w3.org/2000/svg" xmlns:xlink="http://www.w3.org/1999/xlink">
    <!-- Generator: Sketch 54.1 (76490) - https://sketchapp.com -->
    <title>001-refer</title>
    <desc>Created with Sketch.</desc>
    <g id="Page-1" stroke="none" stroke-width="1" fill="none" fill-rule="evenodd">
        <g id="Profile" transform="translate(-1605.000000, -458.000000)" fill="#5D78FF" fill-rule="nonzero">
            <g id="Header-/-Default" transform="translate(255.000000, 1.000000)">
                <g id="profile-drop-down" transform="translate(1326.000000, 81.000000)">
                    <g id="List" transform="translate(0.000000, 83.000000)">
                        <g id="list-item" transform="translate(0.000000, 275.000000)">
                            <g id="001-refer" transform="translate(24.000000, 18.000000)">
                                <path d="M14.1952973,5.2002411 C14.1952973,2.33280946 11.8623505,0 8.99505615,0 C6.12762451,0 3.79481505,2.33280946 3.79481505,5.2002411 C3.79481505,6.97631836 4.69006348,8.54708864 6.0526428,9.4855957 C4.78042601,9.92463683 3.61422731,10.6498718 2.63452148,11.6295776 C0.93562316,13.328476 2.84217094e-14,15.5874023 2.84217094e-14,17.989975 L1.40542601,17.989975 C1.40542601,13.8051453 4.81008909,10.4004822 8.99505615,10.4004822 C11.8623505,10.4004822 14.1952973,8.06767274 14.1952973,5.2002411 Z M8.99505615,8.99505615 C6.90257264,8.99505615 5.2002411,7.29272461 5.2002411,5.2002411 C5.2002411,3.10775759 6.90257264,1.40542601 8.99505615,1.40542601 C11.0874023,1.40542601 12.7897339,3.10775759 12.7897339,5.2002411 C12.7897339,7.29272461 11.0874023,8.99505615 8.99505615,8.99505615 Z M18,12.9303589 L14.6921539,16.238205 L13.6983032,15.2443543 L15.3447418,13.5979156 L14.1258087,13.5979156 C12.4418793,13.5979156 11.0706482,14.9680481 11.0692749,16.6519775 L11.0680389,17.9905243 L9.66261291,17.9894257 L9.66371154,16.6507416 C9.66577148,14.1924133 11.6674805,12.1923523 14.1258087,12.1923523 L15.2744293,12.1923523 L13.6983032,10.6162262 L14.6921539,9.62251281 L18,12.9303589 Z" id="Shape"></path>
                            </g>
                        </g>
                    </g>
                </g>
            </g>
        </g>
    </g>
</svg>