<svg id="Layer_1" data-name="Layer 1" xmlns="http://www.w3.org/2000/svg" xmlns:xlink="http://www.w3.org/1999/xlink" viewBox="0 0 241 60"><defs><style>.cls-1,.cls-2{fill:none;}.cls-1{clip-rule:evenodd;}.cls-3{clip-path:url(#clip-path);}.cls-4{clip-path:url(#clip-path-2);}.cls-5{clip-path:url(#clip-path-3);}.cls-6{clip-path:url(#clip-path-4);}.cls-7{clip-path:url(#clip-path-5);}.cls-8{clip-path:url(#clip-path-6);}.cls-9{clip-path:url(#clip-path-7);}.cls-10{clip-path:url(#clip-path-8);}.cls-11{clip-path:url(#clip-path-9);}.cls-12{clip-path:url(#clip-path-10);}.cls-13{clip-path:url(#clip-path-11);}.cls-14{clip-path:url(#clip-path-12);}.cls-15{clip-path:url(#clip-path-13);}.cls-16{clip-path:url(#clip-path-14);}.cls-17{clip-path:url(#clip-path-15);}.cls-18{fill:#fff;}.cls-19{clip-path:url(#clip-path-16);}.cls-20{clip-path:url(#clip-path-18);}.cls-21{clip-path:url(#clip-path-20);}.cls-22{clip-path:url(#clip-path-22);}.cls-23{clip-path:url(#clip-path-24);}.cls-24{clip-path:url(#clip-path-26);}.cls-25{clip-path:url(#clip-path-28);}.cls-26{clip-path:url(#clip-path-30);}.cls-27{clip-path:url(#clip-path-32);}.cls-28{fill:#4355ff;}.cls-29{clip-path:url(#clip-path-34);}.cls-30{fill:#45e0ee;}.cls-31{clip-path:url(#clip-path-36);}.cls-32{fill:#f90606;}.cls-33{clip-path:url(#clip-path-38);}.cls-34{clip-path:url(#clip-path-40);}.cls-35{clip-path:url(#clip-path-42);}.cls-36{clip-path:url(#clip-path-44);}.cls-37{fill:#3037d1;}.cls-38{clip-path:url(#clip-path-46);}.cls-39{fill:#31b5ff;}.cls-40{clip-path:url(#clip-path-48);}.cls-41{clip-path:url(#clip-path-50);}</style><clipPath id="clip-path"><path class="cls-1" d="M737.88,469.53a13.48,13.48,0,0,1-4,10,14.47,14.47,0,0,1-9.33,3.32H431.49a16,16,0,0,1-9.33-3.32,13.47,13.47,0,0,1-4-10V275.13H737.88Z"/></clipPath><clipPath id="clip-path-2"><path class="cls-1" d="M733.88,479.48a14.47,14.47,0,0,1-9.33,3.32H431.49a16,16,0,0,1-9.33-3.32L578,346.13Z"/></clipPath><clipPath id="clip-path-3"><path class="cls-1" d="M737.88,275.13l-45.29,32.51L586.68,383.28a15,15,0,0,1-18,0L463.46,307.64l-45.29-32.51,45.29-32.51L562,172.29l7.33-5.31a15,15,0,0,1,18,0l7.33,5.31L642,206.13l23.31,16.59,27.31,19.9Z"/></clipPath><clipPath id="clip-path-4"><path class="cls-1" d="M692.59,213.43v94.21L586.68,383.28a15,15,0,0,1-18,0L463.46,307.64V185.56a13.33,13.33,0,0,1,13.32-13.27H650.62Z"/></clipPath><clipPath id="clip-path-5"><path class="cls-1" d="M651.29,202.81a10.5,10.5,0,0,0,10.66,10.62h30.64l-41.3-41.14Z"/></clipPath><clipPath id="clip-path-6"><path class="cls-2" d="M560.71,284.42c0,4.64.67,7.3,2.66,10,2,2,4,3.32,6.66,3.32a12.59,12.59,0,0,0,5.33-1.33,17.64,17.64,0,0,0,4-3.32c2-2,3.33-5.31,4.66-9.29a36.67,36.67,0,0,0,2-11.28c0-4-.67-6.63-2.66-9.29-2-2-4-3.32-6.66-3.32a12.32,12.32,0,0,0-8,3.32q-4,3-6,10A36.7,36.7,0,0,0,560.71,284.42Zm56.62,21.23H628c-3.33,7.3-8.66,12.61-16,16.59-8,4.64-18,6.63-30,6.63-11.32,0-21.31-2-29.31-6s-14.65-9.29-18.65-17.25a51.5,51.5,0,0,1-6-24.55,54.88,54.88,0,0,1,6.66-27.2c4.66-8.63,10.66-14.6,18.65-18.58a61.11,61.11,0,0,1,27.31-6A52.42,52.42,0,0,1,604,234.66c6.66,3.32,12,8,15.32,14.6a43,43,0,0,1,5.33,20.57,39.65,39.65,0,0,1-8,23.89C610,303,601.34,307,590.68,307a16.77,16.77,0,0,1-6.66-1.33c-1.33-1.33-2.66-2.65-2.66-4.64a19.21,19.21,0,0,1-14,6q-9,0-14-6-6-6-6-15.92A40.44,40.44,0,0,1,554,262.53c5.33-8,12.66-11.94,21.31-11.94a16.51,16.51,0,0,1,14,7.3l1.33-6h14l-8,37.15a17.44,17.44,0,0,0-.67,4.64,2.43,2.43,0,0,0,.67,2c.67.66.67.66,1.33.66,1.33,0,4-1.33,6.66-3.32a27.71,27.71,0,0,0,8.66-10.62,35.54,35.54,0,0,0,3.33-13.93,27.54,27.54,0,0,0-9.33-21.23c-6-6-14.65-8.63-26-8.63q-14,0-24,6a37.54,37.54,0,0,0-14.65,15.92c-3.33,6.63-4.66,13.93-4.66,21.89a40.41,40.41,0,0,0,5.33,19.9c4,6,8.66,10.62,15.32,13.27a60,60,0,0,0,22.65,4,68.42,68.42,0,0,0,21.31-3.32A39.73,39.73,0,0,0,617.32,305.65Z"/></clipPath><clipPath id="clip-path-7"><path class="cls-1" d="M285.88,469.53a13.48,13.48,0,0,1-4,10,14.47,14.47,0,0,1-9.33,3.32H-20.51a16,16,0,0,1-9.33-3.32,13.47,13.47,0,0,1-4-10V275.13H285.88Z"/></clipPath><clipPath id="clip-path-8"><path class="cls-1" d="M281.88,479.48a14.47,14.47,0,0,1-9.33,3.32H-20.51a16,16,0,0,1-9.33-3.32L126,346.13Z"/></clipPath><clipPath id="clip-path-9"><path class="cls-1" d="M285.88,275.13l-45.29,32.51L134.68,383.28a15,15,0,0,1-18,0L11.46,307.64l-45.29-32.51,45.29-32.51L110,172.29l7.33-5.31a15,15,0,0,1,18,0l7.33,5.31L190,206.13l23.31,16.59,27.31,19.9Z"/></clipPath><clipPath id="clip-path-10"><path class="cls-1" d="M240.59,213.43v94.21L134.68,383.28a15,15,0,0,1-18,0L11.46,307.64V185.56a13.33,13.33,0,0,1,13.32-13.27H198.62Z"/></clipPath><clipPath id="clip-path-11"><path class="cls-1" d="M199.29,202.81a10.5,10.5,0,0,0,10.66,10.62h30.64l-41.3-41.14Z"/></clipPath><clipPath id="clip-path-12"><circle class="cls-2" cx="127" cy="279" r="50"/></clipPath><clipPath id="clip-path-13"><path class="cls-1" d="M115.76,307.67a6.32,6.32,0,0,1-4.48-1.86L88.86,283.4a6.34,6.34,0,0,1,9-9l17.93,17.93L156.11,252a6.34,6.34,0,0,1,9,9l-44.84,44.84A6.32,6.32,0,0,1,115.76,307.67Z"/></clipPath><clipPath id="clip-path-14"><path class="cls-1" d="M73,42.93A13.67,13.67,0,0,1,65.5,41a10.33,10.33,0,0,1-4.26-5.22l5-2.85q1.75,4.42,6.87,4.42a6.06,6.06,0,0,0,3.62-.87,2.68,2.68,0,0,0-.26-4.56,22.18,22.18,0,0,0-5-1.84,31.89,31.89,0,0,1-3.39-1.16,14.73,14.73,0,0,1-2.77-1.55,6.36,6.36,0,0,1-2.11-2.46,7.82,7.82,0,0,1-.72-3.47,7.64,7.64,0,0,1,2.88-6.25,10.66,10.66,0,0,1,6.93-2.33,11.82,11.82,0,0,1,6.38,1.71,11.64,11.64,0,0,1,4.29,4.77L78,22.13a6,6,0,0,0-5.71-3.72,4.61,4.61,0,0,0-2.88.81,2.51,2.51,0,0,0-1,2.08,2.6,2.6,0,0,0,1.17,2.21A16.68,16.68,0,0,0,74,25.35L76.1,26q.7.23,1.92.7a11.92,11.92,0,0,1,1.88.89,14.92,14.92,0,0,1,1.51,1.12,5.79,5.79,0,0,1,1.3,1.44,8,8,0,0,1,.77,1.8,7.85,7.85,0,0,1,.32,2.29,7.65,7.65,0,0,1-3,6.36A12.33,12.33,0,0,1,73,42.93"/></clipPath><clipPath id="clip-path-15"><rect class="cls-2" x="-45" y="-40" width="1920" height="1080"/></clipPath><clipPath id="clip-path-16"><path class="cls-1" d="M100.91,21h5.44V42.33h-5.44V39.82A8.24,8.24,0,0,1,94,42.93a9.5,9.5,0,0,1-7.23-3.27,11.36,11.36,0,0,1-3-8,11.36,11.36,0,0,1,3-8A9.5,9.5,0,0,1,94,20.39a8.24,8.24,0,0,1,6.87,3.12Zm-10,15a5.58,5.58,0,0,0,4.17,1.69A5.65,5.65,0,0,0,99.25,36a5.9,5.9,0,0,0,1.67-4.33,5.9,5.9,0,0,0-1.67-4.33,5.65,5.65,0,0,0-4.2-1.69,5.58,5.58,0,0,0-4.17,1.69,5.94,5.94,0,0,0-1.64,4.33A5.94,5.94,0,0,0,90.88,36Z"/></clipPath><clipPath id="clip-path-18"><path class="cls-1" d="M124.55,12.88H130V42.34h-5.44V39.86a8.17,8.17,0,0,1-6.83,3.07,9.6,9.6,0,0,1-7.27-3.22,11.11,11.11,0,0,1-3-7.89,11.11,11.11,0,0,1,3-7.89,9.6,9.6,0,0,1,7.27-3.22,8.17,8.17,0,0,1,6.83,3.07Zm-10,23.21a5.69,5.69,0,0,0,4.2,1.66,5.62,5.62,0,0,0,4.17-1.66,5.82,5.82,0,0,0,1.64-4.27,5.82,5.82,0,0,0-1.64-4.27,5.62,5.62,0,0,0-4.17-1.66,5.69,5.69,0,0,0-4.2,1.66,5.78,5.78,0,0,0-1.67,4.27A5.78,5.78,0,0,0,114.53,36.09Z"/></clipPath><clipPath id="clip-path-20"><path class="cls-1" d="M136.67,33.92q1.08,4,5.86,4a5.42,5.42,0,0,0,4.65-2.13l4.32,2.56a10.22,10.22,0,0,1-9.06,4.57,10.83,10.83,0,0,1-11.39-11.27,11.2,11.2,0,0,1,3.07-8,10.43,10.43,0,0,1,7.9-3.22,9.78,9.78,0,0,1,7.54,3.24,11.44,11.44,0,0,1,3,8,13.28,13.28,0,0,1-.21,2.26Zm-.08-4.27h10.6a5.18,5.18,0,0,0-1.89-3.24A5.33,5.33,0,0,0,142,25.34a5.54,5.54,0,0,0-3.57,1.13A5.43,5.43,0,0,0,136.59,29.66Z"/></clipPath><clipPath id="clip-path-22"><path class="cls-1" d="M159.23,33.92q1.08,4,5.86,4a5.42,5.42,0,0,0,4.65-2.13l4.32,2.56A10.22,10.22,0,0,1,165,42.93a10.83,10.83,0,0,1-11.39-11.27,11.2,11.2,0,0,1,3.08-8,10.43,10.43,0,0,1,7.9-3.22,9.78,9.78,0,0,1,7.54,3.24,11.44,11.44,0,0,1,3,8,13.28,13.28,0,0,1-.21,2.26Zm-.08-4.27h10.6a5.18,5.18,0,0,0-1.89-3.24,5.33,5.33,0,0,0-3.26-1.07A5.54,5.54,0,0,0,161,26.48,5.43,5.43,0,0,0,159.15,29.66Z"/></clipPath><clipPath id="clip-path-24"><path class="cls-1" d="M193.3,12.88h5.44V42.34H193.3V39.86a8.17,8.17,0,0,1-6.83,3.07,9.6,9.6,0,0,1-7.27-3.22,11.11,11.11,0,0,1-3-7.89,11.11,11.11,0,0,1,3-7.89,9.6,9.6,0,0,1,7.27-3.22,8.17,8.17,0,0,1,6.83,3.07Zm-10,23.21a5.69,5.69,0,0,0,4.2,1.66,5.62,5.62,0,0,0,4.17-1.66,5.82,5.82,0,0,0,1.64-4.27,5.82,5.82,0,0,0-1.64-4.27,5.62,5.62,0,0,0-4.17-1.66,5.69,5.69,0,0,0-4.2,1.66,5.78,5.78,0,0,0-1.67,4.27A5.78,5.78,0,0,0,183.29,36.09Z"/></clipPath><clipPath id="clip-path-26"><path class="cls-1" d="M207.3,41.83a3.73,3.73,0,1,1,1.11-2.65,3.62,3.62,0,0,1-1.11,2.65"/></clipPath><clipPath id="clip-path-28"><path class="cls-1" d="M213.76,18.45a3,3,0,0,1-2.25-1,3.22,3.22,0,0,1-1-2.32,3.29,3.29,0,0,1,1-2.34,3,3,0,0,1,2.25-1,3.05,3.05,0,0,1,2.29,1,3.3,3.3,0,0,1,1,2.34,3.22,3.22,0,0,1-1,2.32A3.08,3.08,0,0,1,213.76,18.45Zm-2.59,23.41h5.23V21h-5.23Z"/></clipPath><clipPath id="clip-path-30"><path class="cls-1" d="M237.35,39.67a11.27,11.27,0,0,1-19.28-8,11.28,11.28,0,1,1,22.56,0,10.85,10.85,0,0,1-3.28,8m-12.13-3.78a5.54,5.54,0,0,0,4.12,1.67,5.61,5.61,0,0,0,4.14-1.67,5.73,5.73,0,0,0,1.66-4.23,5.73,5.73,0,0,0-1.66-4.23,5.61,5.61,0,0,0-4.14-1.67,5.54,5.54,0,0,0-4.12,1.67,5.77,5.77,0,0,0-1.64,4.23,5.77,5.77,0,0,0,1.64,4.23"/></clipPath><clipPath id="clip-path-32"><path class="cls-1" d="M31.87,33.18H5a2.81,2.81,0,0,1-2.81-2.81v-26A2.81,2.81,0,0,1,5,1.58H45.71a2.81,2.81,0,1,1,0,5.61H7.84V27.56h24a2.81,2.81,0,1,1,0,5.61"/></clipPath><clipPath id="clip-path-34"><path class="cls-1" d="M36.91,59.72a2.8,2.8,0,0,1-2-.82L21.85,45.83H5a2.81,2.81,0,1,1,0-5.61H23A2.81,2.81,0,0,1,25,41l9.11,9.11V43.53a2.81,2.81,0,0,1,2.81-2.81h6.38V20.19H18a2.71,2.71,0,0,1-2.69-2.81A2.71,2.71,0,0,1,18,14.57H46.1a2.81,2.81,0,0,1,2.81,2.81V43.53a2.81,2.81,0,0,1-2.81,2.81H39.72V56.92a2.81,2.81,0,0,1-2.81,2.81"/></clipPath><clipPath id="clip-path-36"><polyline class="cls-1" points="45.71 7.2 48.52 7.2 48.52 1.58 42.71 1.58"/></clipPath><clipPath id="clip-path-38"><polyline class="cls-1" points="17.99 20.19 15.21 20.19 15.21 14.57 21.32 14.57"/></clipPath><clipPath id="clip-path-40"><polyline class="cls-1" points="5 45.8 2.23 45.8 2.23 40.19 11.53 40.19"/></clipPath><clipPath id="clip-path-42"><polyline class="cls-1" points="31.87 33.17 35.89 33.17 35.89 27.56 27.97 27.56"/></clipPath><clipPath id="clip-path-44"><path class="cls-1" d="M50,4.39A4.39,4.39,0,1,1,45.61,0,4.39,4.39,0,0,1,50,4.39"/></clipPath><clipPath id="clip-path-46"><path class="cls-1" d="M21.32,17.38A4.39,4.39,0,1,1,16.93,13a4.39,4.39,0,0,1,4.39,4.39"/></clipPath><clipPath id="clip-path-48"><path class="cls-1" d="M38,30.37A4.39,4.39,0,1,1,33.58,26,4.39,4.39,0,0,1,38,30.37"/></clipPath><clipPath id="clip-path-50"><path class="cls-1" d="M8.78,43a4.39,4.39,0,1,1-4.39-4.39A4.39,4.39,0,0,1,8.78,43"/></clipPath></defs><title>3</title><g class="cls-16"><g class="cls-17"><rect class="cls-18" x="56.23" y="7.88" width="32.56" height="40.05"/></g></g><g class="cls-19"><g class="cls-17"><rect class="cls-18" x="78.79" y="15.39" width="32.56" height="32.54"/></g></g><g class="cls-20"><g class="cls-17"><rect class="cls-18" x="102.43" y="7.88" width="32.56" height="40.05"/></g></g><g class="cls-21"><g class="cls-17"><rect class="cls-18" x="126.06" y="15.39" width="31.49" height="32.54"/></g></g><g class="cls-22"><g class="cls-17"><rect class="cls-18" x="148.62" y="15.39" width="31.49" height="32.54"/></g></g><g class="cls-23"><g class="cls-17"><rect class="cls-18" x="171.18" y="7.88" width="32.56" height="40.05"/></g></g><g class="cls-24"><g class="cls-17"><rect class="cls-18" x="195.89" y="30.42" width="17.52" height="17.51"/></g></g><g class="cls-25"><g class="cls-17"><rect class="cls-18" x="205.56" y="6.81" width="16.45" height="40.05"/></g></g><g class="cls-26"><g class="cls-17"><rect class="cls-18" x="213.08" y="15.39" width="32.56" height="32.54"/></g></g><g class="cls-27"><g class="cls-17"><rect class="cls-28" x="-2.78" y="-3.42" width="56.29" height="41.59"/></g></g><g class="cls-29"><g class="cls-17"><rect class="cls-30" x="-2.78" y="9.57" width="56.68" height="55.15"/></g></g><g class="cls-31"><g class="cls-17"><rect class="cls-32" x="37.71" y="-3.42" width="15.81" height="15.61"/></g></g><g class="cls-33"><g class="cls-17"><rect class="cls-30" x="10.21" y="9.57" width="16.1" height="15.61"/></g></g><g class="cls-34"><g class="cls-17"><rect class="cls-30" x="-2.78" y="35.19" width="19.3" height="15.61"/></g></g><g class="cls-35"><g class="cls-17"><rect class="cls-28" x="22.97" y="22.56" width="17.91" height="15.62"/></g></g><g class="cls-36"><g class="cls-17"><rect class="cls-37" x="36.22" y="-5" width="18.78" height="18.78"/></g></g><g class="cls-38"><g class="cls-17"><rect class="cls-39" x="7.54" y="7.99" width="18.78" height="18.78"/></g></g><g class="cls-40"><g class="cls-17"><rect class="cls-37" x="24.19" y="20.98" width="18.78" height="18.78"/></g></g><g class="cls-41"><g class="cls-17"><rect class="cls-30" x="-5" y="33.61" width="18.78" height="18.78"/></g></g></svg>