<?xml version="1.0" encoding="UTF-8"?>
<svg width="18px" height="21px" viewBox="0 0 18 21" version="1.1" xmlns="http://www.w3.org/2000/svg" xmlns:xlink="http://www.w3.org/1999/xlink">
    <!-- Generator: Sketch 54.1 (76490) - https://sketchapp.com -->
    <title>user</title>
    <desc>Created with Sketch.</desc>
    <g id="Page-1" stroke="none" stroke-width="1" fill="none" fill-rule="evenodd">
        <g id="Profile" transform="translate(-1605.000000, -403.000000)" fill-rule="nonzero">
            <g id="Header-/-Default" transform="translate(255.000000, 1.000000)">
                <g id="profile-drop-down" transform="translate(1326.000000, 81.000000)">
                    <g id="List" transform="translate(0.000000, 83.000000)">
                        <g id="list-item" transform="translate(0.000000, 220.000000)">
                            <g id="user" transform="translate(24.000000, 18.000000)">
                                <ellipse id="XMLID_1944_" fill="#FFFFFF" cx="8.99590909" cy="1.92710706" rx="1.54636364" ry="1.5498861"></ellipse>
                                <ellipse id="XMLID_1942_" fill="#FFFFFF" cx="16.0486364" cy="14.076082" rx="1.54636364" ry="1.5498861"></ellipse>
                                <ellipse id="XMLID_1940_" fill="#FFFFFF" cx="1.94318182" cy="14.076082" rx="1.54636364" ry="1.5498861"></ellipse>
                                <path d="M17.9672727,6.00683371 C17.9672727,4.94487472 17.1081818,4.08382688 16.0486364,4.08382688 C15.4718182,4.08382688 14.9563636,4.338041 14.6045455,4.74396355 L10.8122727,2.54214123 C10.8777273,2.34943052 10.9145455,2.14031891 10.9145455,1.92300683 C10.9145455,0.861047836 10.0554545,0 8.99590909,0 C7.93636364,0 7.07727273,0.861047836 7.07727273,1.92300683 C7.07727273,2.14031891 7.11409091,2.3453303 7.17954545,2.538041 L3.38727273,4.73986333 C3.03545455,4.338041 2.52,4.07972665 1.94318182,4.07972665 C0.883636364,4.07972665 0.0245454545,4.94077449 0.0245454545,6.00273349 C0.0245454545,6.92118451 0.670909091,7.69202733 1.53,7.88063781 L1.53409091,12.1940774 C0.670909091,12.3826879 0.0204545455,13.1535308 0.0204545455,14.0719818 C0.0204545455,15.1339408 0.879545455,15.9949886 1.93909091,15.9949886 C2.50363636,15.9949886 3.01090909,15.7489749 3.36272727,15.3594533 L7.16727273,17.5612756 C7.10590909,17.7498861 7.07318182,17.946697 7.07318182,18.1558087 C7.07318182,19.2177677 7.93227273,20.0788155 8.99181818,20.0788155 C10.0513636,20.0788155 10.9104545,19.2177677 10.9104545,18.1558087 C10.9104545,17.946697 10.8777273,17.7498861 10.8163636,17.5612756 L14.6209091,15.3594533 C14.9727273,15.7489749 15.48,15.9949886 16.0445455,15.9949886 C17.1040909,15.9949886 17.9631818,15.1339408 17.9631818,14.0719818 C17.9631818,13.1412301 17.2963636,12.3580866 16.4168182,12.185877 L16.4168182,7.88883827 C17.3004545,7.72072893 17.9672727,6.94168565 17.9672727,6.00683371 Z M16.0486364,4.82596811 C16.6990909,4.82596811 17.2268182,5.35489749 17.2268182,6.00683371 C17.2268182,6.65876993 16.6990909,7.18769932 16.0486364,7.18769932 C15.3981818,7.18769932 14.8704545,6.65876993 14.8704545,6.00683371 C14.8704545,5.35489749 15.4022727,4.82596811 16.0486364,4.82596811 Z M8.99590909,0.746241458 C9.64636364,0.746241458 10.1740909,1.27517084 10.1740909,1.92710706 C10.1740909,2.12801822 10.125,2.3166287 10.035,2.48473804 C10.0268182,2.4929385 10.0227273,2.50113895 10.0145455,2.51343964 C10.0104545,2.52164009 10.0063636,2.52984055 10.0022727,2.538041 C9.79772727,2.87835991 9.42136364,3.10797267 8.99590909,3.10797267 C8.34545455,3.10797267 7.81772727,2.57904328 7.81772727,1.92710706 C7.81772727,1.27517084 8.34545455,0.746241458 8.99590909,0.746241458 Z M0.765,6.00683371 C0.765,5.35489749 1.29272727,4.82596811 1.94318182,4.82596811 C2.59363636,4.82596811 3.12136364,5.35489749 3.12136364,6.00683371 C3.12136364,6.65876993 2.59363636,7.18769932 1.94318182,7.18769932 C1.29272727,7.18769932 0.765,6.65876993 0.765,6.00683371 Z M1.94318182,15.2569476 C1.29272727,15.2569476 0.765,14.7280182 0.765,14.076082 C0.765,13.4241458 1.29272727,12.8952164 1.94318182,12.8952164 C2.59363636,12.8952164 3.12136364,13.4241458 3.12136364,14.076082 C3.11727273,14.7280182 2.58954545,15.2569476 1.94318182,15.2569476 Z M8.99590909,19.3366743 C8.34545455,19.3366743 7.81772727,18.8077449 7.81772727,18.1558087 C7.81772727,17.5038724 8.34545455,16.9749431 8.99590909,16.9749431 C9.64636364,16.9749431 10.1740909,17.5038724 10.1740909,18.1558087 C10.1740909,18.8077449 9.64636364,19.3366743 8.99590909,19.3366743 Z M10.4563636,16.9134396 C10.1045455,16.4993166 9.58090909,16.2328018 8.99590909,16.2328018 C8.41090909,16.2328018 7.88727273,16.4952164 7.53545455,16.9134396 L3.74727273,14.723918 C3.82090909,14.5230068 3.86181818,14.3015945 3.86181818,14.076082 C3.86181818,13.1289294 3.17863636,12.3416856 2.27863636,12.1817768 L2.27454545,7.89703872 C3.17454545,7.74123007 3.86181818,6.9498861 3.86181818,6.00273349 C3.86181818,5.78542141 3.825,5.57630979 3.75954545,5.38359909 L7.55181818,3.18177677 C7.90363636,3.58769932 8.42318182,3.84191344 9,3.84191344 C9.57681818,3.84191344 10.0922727,3.58769932 10.4440909,3.18177677 L14.2363636,5.38359909 C14.1709091,5.57630979 14.1340909,5.78542141 14.1340909,6.00273349 C14.1340909,6.93348519 14.8009091,7.7166287 15.6804545,7.88883827 L15.6804545,12.185877 C14.8009091,12.3580866 14.1340909,13.1371298 14.1340909,14.0719818 C14.1340909,14.3015945 14.175,14.5189066 14.2486364,14.7198178 L10.4563636,16.9134396 Z M17.2268182,14.076082 C17.2268182,14.7280182 16.6990909,15.2569476 16.0486364,15.2569476 C15.3981818,15.2569476 14.8704545,14.7280182 14.8704545,14.076082 C14.8704545,13.4241458 15.3981818,12.8952164 16.0486364,12.8952164 C16.6990909,12.8952164 17.2268182,13.4241458 17.2268182,14.076082 Z" id="Shape" fill="#0ABB87"></path>
                                <path d="M10.7836364,11.5257403 L10.7836364,10.1849658 C11.0086364,9.96765376 11.1354545,9.66833713 11.1354545,9.34851936 L11.1354545,7.58952164 C11.1354545,6.51116173 10.26,5.63371298 9.18409091,5.63371298 L8.80772727,5.63371298 C7.73181818,5.63371298 6.85636364,6.51116173 6.85636364,7.58952164 L6.85636364,9.34851936 C6.85636364,9.66833713 6.98727273,9.96765376 7.20818182,10.1849658 L7.20818182,11.5257403 C6.78272727,11.7471526 5.76,12.3088838 4.80272727,13.0961276 C4.64318182,13.2273349 4.62272727,13.4610478 4.75363636,13.6209567 C4.88454545,13.7808656 5.11772727,13.8013667 5.27727273,13.6701595 C6.33681818,12.7968109 7.48227273,12.2186788 7.70318182,12.1120729 C7.85863636,12.0341686 7.95272727,11.8824601 7.95272727,11.7061503 L7.95272727,10.008656 C7.95272727,9.8856492 7.89136364,9.7667426 7.78909091,9.70113895 C7.67045455,9.62323462 7.60090909,9.49202733 7.60090909,9.34851936 L7.60090909,7.58952164 C7.60090909,6.92118451 8.145,6.37585421 8.81181818,6.37585421 L9.18818182,6.37585421 C9.855,6.37585421 10.3990909,6.92118451 10.3990909,7.58952164 L10.3990909,9.34851936 C10.3990909,9.48792711 10.3295455,9.6191344 10.2109091,9.70113895 C10.1086364,9.77084282 10.0472727,9.8856492 10.0472727,10.008656 L10.0472727,11.7061503 C10.0472727,11.8783599 10.1454545,12.0341686 10.3009091,12.1120729 C10.5218182,12.2186788 11.6672727,12.8009112 12.7268182,13.6701595 C12.7963636,13.7275626 12.8781818,13.7562642 12.96,13.7562642 C13.0663636,13.7562642 13.1727273,13.7111617 13.2463636,13.6209567 C13.3772727,13.4610478 13.3527273,13.2273349 13.1972727,13.0961276 C12.2318182,12.3088838 11.2090909,11.7430524 10.7836364,11.5257403 Z" id="Path" fill="#0ABB87"></path>
                            </g>
                        </g>
                    </g>
                </g>
            </g>
        </g>
    </g>
</svg>