<?xml version="1.0" encoding="UTF-8"?>
<svg width="18px" height="18px" viewBox="0 0 18 18" version="1.1" xmlns="http://www.w3.org/2000/svg" xmlns:xlink="http://www.w3.org/1999/xlink">
    <!-- Generator: Sketch 54.1 (76490) - https://sketchapp.com -->
    <title>003-cog-wheel-silhouette</title>
    <desc>Created with Sketch.</desc>
    <g id="Page-1" stroke="none" stroke-width="1" fill="none" fill-rule="evenodd">
        <g id="Profile" transform="translate(-1606.000000, -349.000000)" fill="#FFB822" fill-rule="nonzero">
            <g id="Header-/-Default" transform="translate(255.000000, 1.000000)">
                <g id="profile-drop-down" transform="translate(1326.000000, 81.000000)">
                    <g id="List" transform="translate(0.000000, 83.000000)">
                        <g id="list-item" transform="translate(0.000000, 165.000000)">
                            <g id="003-cog-wheel-silhouette" transform="translate(25.000000, 19.000000)">
                                <path d="M17.8872437,7.4393713 C17.8245513,7.35728474 17.7427517,7.30845103 17.6414351,7.29295216 L15.4991071,6.96526196 C15.3820866,6.59062415 15.2220957,6.20831891 15.0192164,5.81801822 C15.1595262,5.62292938 15.3701549,5.3478861 15.6510615,4.99268337 C15.9319681,4.63756264 16.1309112,4.37818223 16.2480957,4.21421412 C16.3105421,4.12835535 16.3415399,4.03868337 16.3415399,3.94495216 C16.3415399,3.8357631 16.3144784,3.74998633 16.2596173,3.68745786 C15.9788337,3.28940774 15.3349339,2.6261139 14.328164,1.6973713 C14.2348838,1.61934396 14.1370524,1.5803508 14.0357358,1.5803508 C13.9185923,1.5803508 13.8249841,1.61540774 13.7547062,1.68560364 L12.0925148,2.93818223 C11.772451,2.77421412 11.4212665,2.6298451 11.0390433,2.50499317 L10.7112711,0.35118451 C10.7034396,0.249744875 10.6585011,0.165813212 10.5765786,0.0994715262 C10.494533,0.033047836 10.3991207,0 10.2896856,0 L7.69096128,0 C7.4646287,0 7.3241139,0.109189066 7.26953986,0.327731207 C7.16805923,0.717785877 7.05485194,1.4435672 6.930041,2.50495216 C6.56319362,2.62221868 6.2081139,2.77048292 5.86476082,2.94994989 L4.24931207,1.6973713 C4.14787244,1.61934396 4.0464328,1.5803508 3.94499317,1.5803508 C3.77331663,1.5803508 3.40462415,1.8593303 2.83879271,2.4173303 C2.27296128,2.9754533 1.88881093,3.3948656 1.68572665,3.67569021 C1.61544875,3.77712984 1.5804328,3.86692483 1.5804328,3.94495216 C1.5804328,4.03868337 1.61938497,4.13233257 1.6974123,4.22585877 C2.22023235,4.8581139 2.63784055,5.3964328 2.95003189,5.84147153 C2.75490205,6.20040547 2.6027426,6.55946241 2.49359453,6.91839636 L0.316168565,7.24608656 C0.230350797,7.26174943 0.156259681,7.31255125 0.0937722096,7.39841002 C0.0311617312,7.48418679 0,7.57402278 0,7.66750797 L0,10.2663554 C0,10.367959 0.0311617312,10.4594351 0.0936492027,10.5413986 C0.156136674,10.6233212 0.238018223,10.6724009 0.339498861,10.6878588 L2.48186788,11.0039863 C2.59105695,11.3863326 2.75100683,11.772492 2.96175854,12.1625877 C2.82136674,12.3577995 2.61065604,12.6328018 2.32970843,12.9879226 C2.04880182,13.3432073 1.84961276,13.6025057 1.73267426,13.7663918 C1.67014579,13.8525786 1.63898405,13.9420866 1.63898405,14.0357768 C1.63898405,14.1370934 1.66629157,14.2267654 1.7208656,14.3047927 C2.02522551,14.7264601 2.66904328,15.3820046 3.65244191,16.271631 C3.73834169,16.3574897 3.83592711,16.4002961 3.94507517,16.4002961 C4.06221868,16.4002961 4.1597631,16.3653622 4.23774943,16.2952073 L5.88846014,15.0424647 C6.20860592,15.2063508 6.55970843,15.3507608 6.94209567,15.4757768 L7.26982688,17.6295854 C7.27774032,17.7309021 7.32259681,17.8148337 7.40443736,17.8813394 C7.48631891,17.9478451 7.58201822,17.9806879 7.69124829,17.9806879 L10.2899727,17.9806879 C10.5167153,17.9806879 10.6570251,17.8715399 10.7117631,17.6529157 C10.8130797,17.26282 10.926164,16.5371207 11.0510159,15.4757768 C11.4178223,15.3585923 11.7729431,15.210246 12.1162961,15.030697 L13.7318679,16.2952073 C13.8410569,16.3654032 13.9426606,16.4002961 14.0361048,16.4002961 C14.2077403,16.4002961 14.5745057,16.1234487 15.1363189,15.56918 C15.6984191,15.0151982 16.0847016,14.5937358 16.2952073,14.3047927 C16.3653622,14.2268064 16.4005421,14.1370934 16.4005421,14.0357768 C16.4005421,13.9341731 16.361713,13.8364237 16.2833986,13.7430615 C15.7217494,13.0561093 15.3041412,12.5178314 15.0309431,12.1274897 C15.1869977,11.8387107 15.3392392,11.483713 15.4875444,11.0622506 L17.6531617,10.7347244 C17.7466059,10.7190205 17.8249203,10.6682187 17.8872027,10.5823599 C17.9496492,10.4963371 17.9806469,10.4065421 17.9806469,10.3129339 L17.9806469,7.71437358 C17.9808519,7.61293394 17.9498542,7.52137585 17.8872437,7.4393713 Z M11.1094032,11.1091162 C10.5242597,11.6945057 9.81795444,11.987221 8.99056948,11.987221 C8.16326651,11.987221 7.45704328,11.6945057 6.87165376,11.1091162 C6.28646925,10.5239727 5.99375399,9.81762642 5.99375399,8.99040547 C5.99375399,8.16310251 6.28630524,7.45687927 6.87165376,6.87148975 C7.45704328,6.28630524 8.16338952,5.99358998 8.99056948,5.99358998 C9.81795444,5.99358998 10.5243007,6.28630524 11.1094032,6.87148975 C11.6946697,7.45687927 11.987385,8.16310251 11.987385,8.99040547 C11.987385,9.81762642 11.6947107,10.5240137 11.1094032,11.1091162 Z" id="Shape"></path>
                            </g>
                        </g>
                    </g>
                </g>
            </g>
        </g>
    </g>
</svg>