<?xml version="1.0" encoding="UTF-8"?>
<svg width="18px" height="15px" viewBox="0 0 18 15" version="1.1" xmlns="http://www.w3.org/2000/svg" xmlns:xlink="http://www.w3.org/1999/xlink">
    <!-- Generator: Sketch 54.1 (76490) - https://sketchapp.com -->
    <title>002-multiple-users-silhouette</title>
    <desc>Created with Sketch.</desc>
    <g id="Page-1" stroke="none" stroke-width="1" fill="none" fill-rule="evenodd">
        <g id="Profile" transform="translate(-1605.000000, -241.000000)" fill="#5D78FF" fill-rule="nonzero">
            <g id="Header-/-Default" transform="translate(255.000000, 1.000000)">
                <g id="profile-drop-down" transform="translate(1326.000000, 81.000000)">
                    <g id="List" transform="translate(0.000000, 83.000000)">
                        <g id="list-item" transform="translate(0.000000, 55.000000)">
                            <g id="Address-card" transform="translate(21.000000, 16.000000)">
                                <g id="002-multiple-users-silhouette" transform="translate(3.000000, 5.000000)">
                                    <path d="M10.7455556,2.572 C11.5688889,3.08822222 12.1462222,3.96177778 12.2513333,4.97577778 C12.5871111,5.13266667 12.9597778,5.22288889 13.3548889,5.22288889 C14.7973333,5.22288889 15.9664444,4.05377778 15.9664444,2.61155556 C15.9664444,1.16911111 14.7973333,0 13.3548889,0 C11.9262222,0.000444444444 10.7673333,1.14866667 10.7455556,2.572 Z M9.03466667,7.91911111 C10.4771111,7.91911111 11.6462222,6.74977778 11.6462222,5.30755556 C11.6462222,3.86533333 10.4768889,2.69622222 9.03466667,2.69622222 C7.59244444,2.69622222 6.42266667,3.86555556 6.42266667,5.30777778 C6.42266667,6.75 7.59244444,7.91911111 9.03466667,7.91911111 Z M10.1424444,8.09711111 L7.92644444,8.09711111 C6.08266667,8.09711111 4.58266667,9.59733333 4.58266667,11.4411111 L4.58266667,14.1511111 L4.58955556,14.1935556 L4.77622222,14.252 C6.53577778,14.8017778 8.06444444,14.9851111 9.32266667,14.9851111 C11.7802222,14.9851111 13.2046667,14.2844444 13.2924444,14.2397778 L13.4668889,14.1515556 L13.4855556,14.1515556 L13.4855556,11.4411111 C13.4862222,9.59733333 11.9862222,8.09711111 10.1424444,8.09711111 Z M14.4631111,5.40111111 L12.2642222,5.40111111 C12.2404444,6.28088889 11.8648889,7.07311111 11.2708889,7.64288889 C12.9097778,8.13022222 14.1088889,9.65 14.1088889,11.4451111 L14.1088889,12.2802222 C16.28,12.2006667 17.5311111,11.5853333 17.6135556,11.544 L17.788,11.4555556 L17.8066667,11.4555556 L17.8066667,8.74466667 C17.8066667,6.90111111 16.3066667,5.40111111 14.4631111,5.40111111 Z M4.45222222,5.22333333 C4.96311111,5.22333333 5.43844444,5.07422222 5.84111111,4.82022222 C5.96911111,3.98533333 6.41666667,3.25577778 7.056,2.75888889 C7.05866667,2.71 7.06333333,2.66155556 7.06333333,2.61222222 C7.06333333,1.16977778 5.894,0.000666666667 4.45222222,0.000666666667 C3.00955556,0.000666666667 1.84066667,1.16977778 1.84066667,2.61222222 C1.84066667,4.054 3.00955556,5.22333333 4.45222222,5.22333333 Z M6.79755556,7.64288889 C6.20644444,7.076 5.83222222,6.288 5.80488889,5.41355556 C5.72333333,5.40755556 5.64266667,5.40111111 5.55955556,5.40111111 L3.34377778,5.40111111 C1.5,5.40111111 0,6.90111111 0,8.74466667 L0,11.4551111 L0.00688888889,11.4968889 L0.193555556,11.5557778 C1.60511111,11.9964444 2.86488889,12.1995556 3.95911111,12.2635556 L3.95911111,11.4451111 C3.95955556,9.65 5.15822222,8.13066667 6.79755556,7.64288889 Z" id="Shape"></path>
                                </g>
                            </g>
                        </g>
                    </g>
                </g>
            </g>
        </g>
    </g>
</svg>