<?xml version="1.0" encoding="UTF-8"?>
<svg width="18px" height="18px" viewBox="0 0 18 18" version="1.1" xmlns="http://www.w3.org/2000/svg" xmlns:xlink="http://www.w3.org/1999/xlink">
    <!-- Generator: Sketch 54.1 (76490) - https://sketchapp.com -->
    <title>003-twitter</title>
    <desc>Created with Sketch.</desc>
    <defs>
        <linearGradient x1="33.2019533%" y1="14.05981%" x2="58.4948073%" y2="68.1747744%" id="linearGradient-1">
            <stop stop-color="#00C3FF" offset="0%"></stop>
            <stop stop-color="#00B0ED" offset="100%"></stop>
        </linearGradient>
        <linearGradient x1="73.8335045%" y1="62.7852419%" x2="-89.8948936%" y2="-25.0447696%" id="linearGradient-2">
            <stop stop-color="#00B0ED" stop-opacity="0" offset="0%"></stop>
            <stop stop-color="#00A2CE" offset="100%"></stop>
        </linearGradient>
        <linearGradient x1="49.9996672%" y1="26.9860983%" x2="49.9996672%" y2="92.6337225%" id="linearGradient-3">
            <stop stop-color="#00B0ED" stop-opacity="0" offset="0%"></stop>
            <stop stop-color="#00A2CE" offset="100%"></stop>
        </linearGradient>
        <linearGradient x1="94.5561774%" y1="86.4621691%" x2="34.2372875%" y2="30.4154833%" id="linearGradient-4">
            <stop stop-color="#00B0ED" stop-opacity="0" offset="0%"></stop>
            <stop stop-color="#00A2CE" offset="100%"></stop>
        </linearGradient>
    </defs>
    <g id="Page-1" stroke="none" stroke-width="1" fill="none" fill-rule="evenodd">
        <g id="Notifications" transform="translate(-1459.000000, -314.000000)" fill-rule="nonzero">
            <g id="Header-/-Default" transform="translate(255.000000, 1.000000)">
                <g id="Notifications" transform="translate(1189.000000, 81.000000)">
                    <g id="list" transform="translate(0.000000, 96.000000)">
                        <g id="not-item" transform="translate(0.000000, 116.000000)">
                            <g id="003-twitter" transform="translate(15.000000, 20.000000)">
                                <path d="M14.7804565,17.6918335 C10.9307098,18.1027222 7.06929015,18.1027222 3.21954346,17.6918335 C1.68447874,17.5279999 0.472000113,16.3155213 0.308166504,14.7803192 C-0.102722168,10.9305725 -0.102722168,7.06929015 0.308166504,3.21954346 C0.472000113,1.68447874 1.68447874,0.472000113 3.21954346,0.308166504 C7.06929015,-0.102722168 10.9305725,-0.102722168 14.7803192,0.308166504 C16.3155213,0.472000113 17.5279999,1.68447874 17.6918335,3.21954346 C18.1027222,7.06929015 18.1027222,10.9305725 17.6918335,14.7803192 C17.5279999,16.3155213 16.3156586,17.5279999 14.7804565,17.6918335 Z" id="Path" fill="url(#linearGradient-1)"></path>
                                <path d="M16.7128143,3.87062072 C16.5675201,2.50845335 15.491684,1.43247987 14.1293793,1.28704834 C10.7131806,0.922576922 7.28681945,0.922576922 3.87062072,1.28704834 C2.50845335,1.43247987 1.43247987,2.50845335 1.28704834,3.87062072 C0.922576922,7.28681945 0.922576922,10.7131806 1.28704834,14.129242 C1.43247987,15.4915466 2.50845335,16.5675201 3.87062072,16.7128143 C7.28681945,17.0774231 10.7131806,17.0774231 14.129242,16.7128143 C15.4915466,16.5675201 16.5675201,15.4915466 16.7128143,14.129242 C17.0774231,10.7131806 17.0774231,7.28681945 16.7128143,3.87062072 L16.7128143,3.87062072 Z" id="Path" fill="url(#linearGradient-2)"></path>
                                <path d="M0.269714355,14.4071961 C0.282073992,14.5316162 0.29484559,14.6560364 0.308166504,14.7804565 C0.472000113,16.3155213 1.68447874,17.5279999 3.21968078,17.6918335 C7.06942751,18.1027222 10.9307098,18.1027222 14.7804565,17.6918335 C16.3156586,17.5279999 17.5279999,16.3155213 17.6918335,14.7804565 C17.7051544,14.6560364 17.717926,14.5316162 17.730423,14.4071961 L0.269714355,14.4071961 Z" id="Path" fill="url(#linearGradient-3)"></path>
                                <path d="M17.9961548,8.36746214 L14.2598419,4.63128662 C13.8411255,4.87065125 13.4721222,5.00344847 13.1941681,5.07705687 C13.0378876,5.11894227 12.9103088,5.14173888 12.818573,5.15423584 C12.3972473,4.72233582 11.8089295,4.45413206 11.1577148,4.45413206 C9.87643434,4.45413206 8.83753966,5.49288942 8.83753966,6.77444456 C8.83753966,6.8207245 8.83877562,6.86645508 8.84179688,6.91204834 C8.84797668,7.02314757 8.86212158,7.13232422 8.88395692,7.23847961 C8.34906006,7.23051454 6.61047363,7.08769227 4.95236208,5.66633605 C4.95222472,5.66633605 4.95222472,5.66619873 4.95222472,5.66619873 L4.9520874,5.66619873 L4.17013552,4.88410949 C4.17013552,4.88410949 3.25277712,6.48522949 4.60148621,7.70018006 C4.66067503,7.76623535 4.72576904,7.83146668 4.79704286,7.89559938 C4.80267334,7.9019165 4.8085785,7.9080963 4.81420898,7.91441346 C4.63719178,7.90246582 4.10476683,7.8494568 3.79660036,7.63179015 C3.79660036,7.63179015 3.73466493,8.61039735 4.54998779,9.3308258 L5.20834352,9.99481201 C5.007843,10.0114288 4.78605653,10.0074463 4.63183594,9.93988037 C4.63183594,9.93988037 4.76834105,10.5195465 5.29595947,10.9834442 L6.21826172,11.910553 C5.66496278,12.2328644 4.69638063,12.6362 3.42141722,12.5332031 L9.01634217,18 C10.9386749,17.9994507 12.8610077,17.8967285 14.7804565,17.6918335 C16.3156586,17.5279999 17.5281372,16.3155213 17.6919708,14.7804565 C17.9197998,12.644989 18.0210113,10.5059509 17.9961548,8.36746214 L17.9961548,8.36746214 Z" id="Path" fill="url(#linearGradient-4)"></path>
                                <path d="M14.5787201,5.5324402 C14.1804657,5.74076844 13.5806122,5.83703613 13.3817597,5.86477659 C13.3801117,5.85516357 13.3784638,5.84596252 13.3768158,5.83676149 C14.0528869,5.41859435 14.2598419,4.63128662 14.2598419,4.63128662 C13.8411255,4.87065125 13.4721222,5.00344847 13.1941681,5.07705687 C13.0378876,5.11894227 12.9103088,5.14160156 12.818573,5.15423584 C12.3972473,4.72219847 11.8089295,4.45413206 11.1577148,4.45413206 C9.87643434,4.45413206 8.83753966,5.49275207 8.83753966,6.77444456 C8.83753966,6.82058714 8.83877562,6.86645508 8.84179688,6.91191102 C8.84797668,7.02301025 8.86212158,7.1321869 8.88395692,7.23834229 C8.2637787,7.22914123 6.02517698,7.03894043 4.17013552,4.88410949 C4.17013552,4.88410949 3.137146,6.68641662 4.8738098,7.91757204 C4.8738098,7.91757204 4.17013552,7.89559938 3.79660036,7.63179015 C3.79660036,7.63179015 3.68673708,9.36845399 5.68693543,9.91777039 C5.68693543,9.91777039 4.98367308,10.0938263 4.63169862,9.93988037 C4.63169862,9.93988037 4.98353576,11.4345703 6.74203493,11.5447082 C6.74203493,11.5447082 5.48080446,12.6993713 3.4212799,12.5332031 C4.43421935,13.17453 5.63516234,13.5457306 6.92275999,13.5457306 C10.5431671,13.5457306 13.4781647,10.6108703 13.4781647,6.99046327 C13.4781647,6.945282 13.4777527,6.9001007 13.4767914,6.85491943 C13.4777527,6.82814025 13.4781647,6.80149842 13.4781647,6.77444456 C13.4781647,6.75563048 13.4777527,6.73681641 13.477478,6.71800233 C14.1468201,6.27195741 14.5787201,5.5324402 14.5787201,5.5324402 L14.5787201,5.5324402 Z" id="Path" fill="#FFFFFF"></path>
                            </g>
                        </g>
                    </g>
                </g>
            </g>
        </g>
    </g>
</svg>